<svg xmlns="http://www.w3.org/2000/svg" viewBox="0 0 164.28 41.08"><defs><style>.cls-1,.cls-2{fill:#fff;}.cls-1{fill-rule:evenodd;}</style></defs><title>Asset 1</title><g id="Layer_2" data-name="Layer 2"><g id="Layer_1-2" data-name="Layer 1"><path id="Fill-6" class="cls-1" d="M36.46,31,41,40v.06a.68.68,0,0,1-.62,1h0a.76.76,0,0,1-.33-.08L20.53,31,1,41a.76.76,0,0,1-.33.08.68.68,0,0,1-.67-.7.67.67,0,0,1,.06-.28V40L4.6,31ZM20.53,0a.66.66,0,0,1,.58.33h0L33.23,24.55H7.83L19.92.38h0A.68.68,0,0,1,20.53,0Z"/><g id="Group-3"><path id="Альфа" class="cls-1" d="M59,17.91l-.24-.79c-.07-.27-.15-.52-.22-.74s-.16-.51-.23-.75H54.07c-.07.24-.15.49-.23.75l-.24.74c-.09.27-.18.53-.26.79H50.87L55,6.25l.59-.16a3.82,3.82,0,0,1,.68,0,4.41,4.41,0,0,1,1.44.21l3.88,11.66Zm-1.28-4.25-.4-1.42c-.1-.36-.18-.63-.24-.83a3.53,3.53,0,0,0-.15-.46,4.91,4.91,0,0,1-.17-.63c-.06-.2-.14-.45-.22-.75l-.27-1H56.2c-.11.38-.2.71-.29,1s-.17.55-.23.76-.13.47-.19.65a4.42,4.42,0,0,0-.15.48c-.05.2-.14.47-.24.82s-.24.82-.42,1.41Zm9.85,4.25V11.36l-.35,0H65.58l-.36,0v3a7.14,7.14,0,0,1-.14,1.53A3,3,0,0,1,64.67,17a2.13,2.13,0,0,1-.75.68,4.64,4.64,0,0,1-1.14.44l-.62-1.28a1.67,1.67,0,0,0,.5-.49,3,3,0,0,0,.25-.51,2.76,2.76,0,0,0,.08-.27,1.93,1.93,0,0,0,0-.34V9.87a12.18,12.18,0,0,1,1.69-.39,11.87,11.87,0,0,1,1.68-.12,12,12,0,0,1,1.7.12,12.66,12.66,0,0,1,1.7.39v8ZM76.69,15a1.4,1.4,0,0,0-.3-.94,1.33,1.33,0,0,0-1.06-.34H74.7l-.35.06v2.4l.54.12h.44a1.22,1.22,0,0,0,1.08-.3A1.62,1.62,0,0,0,76.69,15ZM74.35,9.52v2.67l.73-.16a4.09,4.09,0,0,1,.7,0,3.38,3.38,0,0,1,2.4.78A2.78,2.78,0,0,1,79,14.92a3,3,0,0,1-.93,2.34,3.9,3.9,0,0,1-2.71.84,9.61,9.61,0,0,1-1.61-.1,7.64,7.64,0,0,1-1.63-.48v-8Zm11,11.1v-3a3.71,3.71,0,0,1-.65.27,4,4,0,0,1-1.15.14,2.9,2.9,0,0,1-2.43-1,5,5,0,0,1-.88-3.21,4.84,4.84,0,0,1,1-3.34,3.48,3.48,0,0,1,2.67-1,4.7,4.7,0,0,1,.75,0,2,2,0,0,1,.68.22V6.06h2.22V9.62a2.29,2.29,0,0,1,.67-.22,4.7,4.7,0,0,1,.75,0,3.5,3.5,0,0,1,2.67,1,4.71,4.71,0,0,1,1,3.31,6.58,6.58,0,0,1-.24,1.87A4.09,4.09,0,0,1,91.73,17a2.9,2.9,0,0,1-1,.84,3.12,3.12,0,0,1-1.31.28,4,4,0,0,1-1.15-.14,3.71,3.71,0,0,1-.65-.27v3Zm5-7c0-1.67-.51-2.51-1.53-2.51h-.58a2.29,2.29,0,0,0-.67.22V16a3,3,0,0,0,.59.15,5,5,0,0,0,.55,0,1.35,1.35,0,0,0,1.2-.67,3.3,3.3,0,0,0,.4-1.79Zm-7.78.06a3.43,3.43,0,0,0,.38,1.8,1.34,1.34,0,0,0,1.26.65,5,5,0,0,0,.55,0,3,3,0,0,0,.59-.15v-4.6a2.29,2.29,0,0,0-.67-.22H84.1a1.24,1.24,0,0,0-1.15.65,3.85,3.85,0,0,0-.42,1.94ZM100.19,18a1.14,1.14,0,0,1-.41-.24,1.88,1.88,0,0,1-.43-.46,2.34,2.34,0,0,1-.43.26l-.36.16a3.48,3.48,0,0,1-.78.22,4.91,4.91,0,0,1-.86.08,3.05,3.05,0,0,1-1.08-.17,2.55,2.55,0,0,1-.88-.49,2.29,2.29,0,0,1-.6-.81,2.53,2.53,0,0,1-.22-1.09,2.61,2.61,0,0,1,.86-2,3.77,3.77,0,0,1,2.55-.77,2.91,2.91,0,0,1,.59,0,4.52,4.52,0,0,1,.53.11v-.4a3.64,3.64,0,0,0,0-.66.69.69,0,0,0-.22-.4,1.13,1.13,0,0,0-.5-.19,5.2,5.2,0,0,0-.88-.05h-.82a5.92,5.92,0,0,0-.93.12L95,9.6a12,12,0,0,1,2.87-.33,4.93,4.93,0,0,1,1.66.22,2,2,0,0,1,.93.67,1.52,1.52,0,0,1,.22.34,2.16,2.16,0,0,1,.14.43,3.43,3.43,0,0,1,.08.56v3.76q0,.3.12.6a2.21,2.21,0,0,0,.23.55c.11.21.24.41.37.61Zm-1.41-1.93a1.6,1.6,0,0,1-.09-.53V14.13l-.28-.06H98a2.61,2.61,0,0,0-1.26.25.93.93,0,0,0-.42.88,1,1,0,0,0,.32.86,1.54,1.54,0,0,0,.93.25,5.42,5.42,0,0,0,.57,0,2.19,2.19,0,0,0,.57-.16Z"/><path class="cls-1" d="M104.15,14.61a1.65,1.65,0,0,1,.51-1.2,1.7,1.7,0,1,1-.51,1.2Z"/><path id="Директ" class="cls-1" d="M110.56,16.51a2.37,2.37,0,0,0,.71-.83,5.07,5.07,0,0,0,.4-1.13,8.23,8.23,0,0,0,.16-1.31V6.59a14.9,14.9,0,0,1,1.87-.43,14.55,14.55,0,0,1,3.73,0,13.46,13.46,0,0,1,1.88.43v9.78h1v4.45H118.1V18.29h-5.75v2.53h-2.18V16.75Zm3.52-4.17a7.36,7.36,0,0,1-.33,2.28,4.87,4.87,0,0,1-.94,1.75H117V8.3a4.67,4.67,0,0,0-.65-.13,6.47,6.47,0,0,0-.76-.05,7,7,0,0,0-.79.05,3.89,3.89,0,0,0-.68.13Zm10.36,5.95h-2.38V9.76h2.17v5.78h.07c.23-.5.44-1,.61-1.36s.33-.76.48-1L127,9.76h2.39v8.53h-2.18V13.87a10.73,10.73,0,0,1,.06-1.22h-.07c-.29.61-.52,1.11-.67,1.49a8.33,8.33,0,0,1-.39.88Zm11.2.14a3.89,3.89,0,0,1-1.07-.15,3.43,3.43,0,0,1-.82-.33v3.56h-2.18V10.21a11.42,11.42,0,0,1,1.72-.44,11.75,11.75,0,0,1,2.05-.18,4.21,4.21,0,0,1,1.53.26,2.81,2.81,0,0,1,1.16.78,3.52,3.52,0,0,1,.73,1.36,7.09,7.09,0,0,1,.26,2,6,6,0,0,1-.27,1.87,4.36,4.36,0,0,1-.71,1.39,3.23,3.23,0,0,1-1.07.87A3.05,3.05,0,0,1,135.64,18.43Zm-.57-7h-.67a3,3,0,0,0-.65.17v4.6a2.26,2.26,0,0,0,.64.32,2.82,2.82,0,0,0,.65.08,1.44,1.44,0,0,0,1.21-.74,3.34,3.34,0,0,0,.49-1.9,6.74,6.74,0,0,0-.08-1,2.58,2.58,0,0,0-.27-.81,1.24,1.24,0,0,0-.51-.53,1.64,1.64,0,0,0-.81-.19Zm9.41,5.32a8.89,8.89,0,0,0,1.15-.08,6.19,6.19,0,0,0,1.17-.19l.36,1.68a11.42,11.42,0,0,1-2.85.36,5,5,0,0,1-1.67-.23,3.59,3.59,0,0,1-1.14-.61,3.09,3.09,0,0,1-.73-.84,4.41,4.41,0,0,1-.58-1.86c0-.24,0-.47,0-.71a6.27,6.27,0,0,1,.27-1.87,4.51,4.51,0,0,1,.81-1.49,3.71,3.71,0,0,1,1.29-1,3.94,3.94,0,0,1,1.72-.36,4,4,0,0,1,1.6.3,2.83,2.83,0,0,1,1.08.86,3.57,3.57,0,0,1,.61,1.31,6.77,6.77,0,0,1,.19,1.68v.9h-5.25a3.55,3.55,0,0,0,.1.86,1.51,1.51,0,0,0,.33.67,1.54,1.54,0,0,0,.63.44A2.38,2.38,0,0,0,144.48,16.75Zm1-3.72a2.89,2.89,0,0,0,0-.72,1.91,1.91,0,0,0-.23-.6,1.18,1.18,0,0,0-.44-.42,1.37,1.37,0,0,0-.69-.15,1.33,1.33,0,0,0-1.17.51,2.84,2.84,0,0,0-.46,1.38Zm8.68,5.26-.49-1.19c-.14-.35-.26-.62-.35-.84s-.22-.46-.29-.63a3.36,3.36,0,0,0-.2-.43,1.27,1.27,0,0,0-.21-.25.7.7,0,0,0-.28-.12h-.69v3.48h-2.21V9.76h2.21V13H152a.85.85,0,0,0,.58-.15,1.93,1.93,0,0,0,.31-.49l.29-.62.29-.61c.1-.2.19-.38.28-.54a1.88,1.88,0,0,1,.31-.43,1.53,1.53,0,0,1,1.18-.52h1.05l-.13,1.54a.37.37,0,0,0-.21,0l-.16.05a.42.42,0,0,0-.14.09,1.28,1.28,0,0,0-.29.37c-.09.15-.23.43-.42.83a2.93,2.93,0,0,1-.57.9,1.37,1.37,0,0,1-.63.33v.05a1.43,1.43,0,0,1,.79.45,4.05,4.05,0,0,1,.52.84l.3.63c.12.24.27.57.46,1s.43.94.74,1.59Zm6.71-8.73c.61,0,1.22,0,1.82,0a12.12,12.12,0,0,1,1.59.2l-.18,1.9c-.31-.05-.62-.09-.93-.11h-1.26v6.72h-2.17V11.57H158.5a9.24,9.24,0,0,0-.92.11l-.21-1.9a11.17,11.17,0,0,1,1.63-.2l1.9,0Z"/></g><path class="cls-2" d="M54.34,24.88a3.39,3.39,0,0,1,1.25.23,2.91,2.91,0,0,1,1,.69l-.7,1a5.59,5.59,0,0,0-.65-.4,1.61,1.61,0,0,0-.77-.2,1.53,1.53,0,0,0-.89.25,1.74,1.74,0,0,0-.54.68,3.54,3.54,0,0,0-.28,1,9.28,9.28,0,0,0-.07,1.21,6.66,6.66,0,0,0,.1,1.23,3.19,3.19,0,0,0,.32,1,1.85,1.85,0,0,0,.58.63,1.55,1.55,0,0,0,.86.22,1.8,1.8,0,0,0,.8-.17c.25-.11.46-.22.63-.31L56.54,33a2.5,2.5,0,0,1-1,.53,4.2,4.2,0,0,1-1.2.16,3.25,3.25,0,0,1-1.67-.38,3.15,3.15,0,0,1-1.09-1A4,4,0,0,1,51,31a8.07,8.07,0,0,1-.17-1.64,6.1,6.1,0,0,1,.35-2.23,3.86,3.86,0,0,1,.88-1.36,2.92,2.92,0,0,1,1.13-.66A3.88,3.88,0,0,1,54.34,24.88Z"/><path class="cls-2" d="M60.37,32.49a7.34,7.34,0,0,0,.81-.05A8.17,8.17,0,0,0,62,32.3l.26,1.19a8.52,8.52,0,0,1-2,.26,3.75,3.75,0,0,1-1.19-.17,2.54,2.54,0,0,1-.82-.43,2.08,2.08,0,0,1-.52-.6,2.56,2.56,0,0,1-.29-.66,3.16,3.16,0,0,1-.13-.64q0-.3,0-.51a4.23,4.23,0,0,1,.2-1.31A2.82,2.82,0,0,1,58,28.38a2.65,2.65,0,0,1,.92-.7,2.85,2.85,0,0,1,1.23-.25,2.76,2.76,0,0,1,1.14.21,2.14,2.14,0,0,1,.78.6,2.66,2.66,0,0,1,.43.93,4.39,4.39,0,0,1,.14,1.18V31H58.92a2.84,2.84,0,0,0,.07.61,1.21,1.21,0,0,0,.24.48,1.34,1.34,0,0,0,.45.31A2,2,0,0,0,60.37,32.49Zm.73-2.62a1.71,1.71,0,0,0,0-.51,1.31,1.31,0,0,0-.16-.42.82.82,0,0,0-.32-.29,1,1,0,0,0-.49-.11,1,1,0,0,0-.84.36,1.92,1.92,0,0,0-.33,1Z"/><path class="cls-2" d="M66.92,33.68a2.45,2.45,0,0,1-.76-.11,2.69,2.69,0,0,1-.59-.23v2.51H64v-8a7.92,7.92,0,0,1,1.23-.3,7.81,7.81,0,0,1,1.47-.13,3.12,3.12,0,0,1,1.09.18,2,2,0,0,1,.83.55,2.47,2.47,0,0,1,.53,1,4.93,4.93,0,0,1,.18,1.41,4.17,4.17,0,0,1-.19,1.32,2.76,2.76,0,0,1-.51,1,2.29,2.29,0,0,1-.77.62A2.17,2.17,0,0,1,66.92,33.68Zm-.4-4.94a2.59,2.59,0,0,0-.48,0,1.91,1.91,0,0,0-.47.12v3.24a1.72,1.72,0,0,0,.46.22,1.65,1.65,0,0,0,.46.06,1,1,0,0,0,.87-.52,2.42,2.42,0,0,0,.35-1.35,4,4,0,0,0-.06-.72,1.8,1.8,0,0,0-.19-.58,1,1,0,0,0-.36-.37A1.16,1.16,0,0,0,66.52,28.74Z"/><path class="cls-2" d="M70.6,27.76a12.13,12.13,0,0,1,1.28-.26,8.07,8.07,0,0,1,1.06-.07,3.65,3.65,0,0,1,1.83.36,1.39,1.39,0,0,1,.6,1.3,1.32,1.32,0,0,1-.27.82,1.35,1.35,0,0,1-.74.49,1.62,1.62,0,0,1,.86.47,1.38,1.38,0,0,1,.35,1,1.55,1.55,0,0,1-.69,1.42,3.46,3.46,0,0,1-1.84.43,11.14,11.14,0,0,1-1.32-.08,7.16,7.16,0,0,1-1.12-.22ZM72.2,30h.68a1.17,1.17,0,0,0,.47-.08.91.91,0,0,0,.27-.18.6.6,0,0,0,.12-.22,1.76,1.76,0,0,0,0-.19.6.6,0,0,0-.2-.5,1,1,0,0,0-.66-.17,3.06,3.06,0,0,0-.7.1Zm0,2.48.44.08.32,0a1.45,1.45,0,0,0,.35,0,1,1,0,0,0,.33-.13.73.73,0,0,0,.23-.26.82.82,0,0,0,.09-.4.61.61,0,0,0-.11-.4.66.66,0,0,0-.27-.2,1.08,1.08,0,0,0-.31-.07H72.2Z"/><path class="cls-2" d="M78.58,33.58h-1.7v-6h1.57l0,2.67v.31c0,.13,0,.26,0,.4s0,.26,0,.39a2.11,2.11,0,0,1,0,.3h0c.17-.35.31-.67.44-1A7.43,7.43,0,0,1,79.2,30l1.13-2.38H82v6H80.47V30.9c0-.11,0-.26,0-.43s0-.47,0-.87h0c-.21.44-.37.79-.48,1.06s-.2.47-.28.62Z"/><path class="cls-2" d="M86,27.43a2.59,2.59,0,0,1,1,.18,2.28,2.28,0,0,1,.74.49l-.58,1a5.58,5.58,0,0,0-.52-.32,1.32,1.32,0,0,0-.64-.15.94.94,0,0,0-.88.53,3.46,3.46,0,0,0-.28,1.52,2.94,2.94,0,0,0,.26,1.38,1,1,0,0,0,.92.47,1.62,1.62,0,0,0,.61-.12,5.18,5.18,0,0,0,.53-.27l.45,1.05a2.37,2.37,0,0,1-.8.42,2.93,2.93,0,0,1-.9.14,3.32,3.32,0,0,1-1-.16,2.3,2.3,0,0,1-.85-.51,2.72,2.72,0,0,1-.6-.93,4,4,0,0,1-.22-1.43,4.5,4.5,0,0,1,.22-1.51,3,3,0,0,1,.62-1,2.37,2.37,0,0,1,.89-.58A3,3,0,0,1,86,27.43Z"/></g></g></svg>