<svg xmlns="http://www.w3.org/2000/svg" viewBox="0 0 118.14 51.99"><defs><style>.cls-1{fill:#fff;}.cls-2{fill:#f1f2f2;}</style></defs><title>Asset 2</title><g id="Layer_2" data-name="Layer 2"><g id="Layer_1-2" data-name="Layer 1"><path class="cls-1" d="M105.45,1.59a11.11,11.11,0,0,1,11.1,11.1V50.4H12.69A11.1,11.1,0,0,1,1.59,39.31V12.69a11.11,11.11,0,0,1,11.1-11.1h92.76m0-1.59H12.69A12.73,12.73,0,0,0,0,12.69V39.31A12.72,12.72,0,0,0,12.69,52H118.14V12.69A12.73,12.73,0,0,0,105.45,0Z"/><rect class="cls-1" x="11.85" y="37.51" width="1.61" height="4.9" rx="0.41"/><rect class="cls-1" x="15.34" y="38.45" width="1.61" height="3.96" rx="0.41"/><rect class="cls-1" x="18.83" y="39.06" width="1.61" height="3.35" rx="0.41"/><rect class="cls-1" x="22.33" y="37.12" width="1.61" height="5.29" rx="0.41"/><rect class="cls-1" x="25.82" y="39.64" width="1.61" height="2.77" rx="0.41"/><rect class="cls-1" x="29.31" y="37.72" width="1.61" height="4.69" rx="0.41"/><rect class="cls-1" x="32.81" y="36.46" width="1.61" height="5.95" rx="0.41"/><path class="cls-1" d="M12.09,32.88,16,34.4a.38.38,0,0,0,.48-.23C16.56,34,18,30,18.18,29.52h9.94c.17.45,1.61,4.46,1.68,4.65a.38.38,0,0,0,.48.23l3.92-1.52a.39.39,0,0,0,.22-.5l-7.2-19.72C26.54,10.81,25.73,9,23.15,9s-3.43,1.88-4.08,3.7c-.34.95-7,19-7.2,19.72A.4.4,0,0,0,12.09,32.88ZM23.13,15h0l3.37,10.1H19.76Z"/><rect class="cls-2" x="42.86" y="7.98" width="0.8" height="35.81"/><path class="cls-1" d="M50.49,25.06l3.68-9.36h2.67l3.68,9.36H58l-.54-1.47H53.56L53,25.06Zm3.81-3.48h2.41l-1-2.7a4.48,4.48,0,0,1-.24-.95,4.48,4.48,0,0,1-.24.95Z"/><path class="cls-1" d="M69.73,15.7v9.36H67.25V17.91h-2c-.3,3.83-.77,7.26-3.45,7.27A3.54,3.54,0,0,1,60.64,25V22.84a1.58,1.58,0,0,0,.64.05c1.51-.16,1.48-4.36,1.7-7.19Z"/><path class="cls-1" d="M71.49,25.06V15.7H74v2.94H75.2c2.31,0,4.07.75,4.07,3.21s-1.76,3.21-4.07,3.21ZM74,22.92h1.35c.75,0,1.41-.23,1.41-1.07s-.66-1.07-1.41-1.07H74Z"/><path class="cls-1" d="M84.33,25.59V24.44c-2.77-.14-4.55-1.61-4.55-4.06s1.78-3.92,4.55-4.07V15.16h2.34v1.15c2.73.18,4.48,1.64,4.48,4.07s-1.75,3.89-4.48,4.06v1.15Zm0-3.16v-4.1c-1.67.16-2.08,1.17-2.08,2.05S82.66,22.26,84.33,22.43Zm2.34,0a2.05,2.05,0,0,0,0-4.1Z"/><path class="cls-1" d="M90.94,25.06l3.68-9.36H97.3L101,25.06H98.43l-.53-1.47H94l-.53,1.47Zm3.82-3.48h2.4l-1-2.7a4.48,4.48,0,0,1-.24-.95,4.48,4.48,0,0,1-.24.95Z"/><path class="cls-1" d="M55.25,38.91V37.76c-2.77-.15-4.55-1.62-4.55-4.06s1.78-3.92,4.55-4.07V28.48h2.34v1.15c2.73.18,4.48,1.63,4.48,4.07s-1.75,3.89-4.48,4.06v1.15Zm0-3.17V31.65c-1.67.16-2.07,1.17-2.07,2.05S53.58,35.58,55.25,35.74Zm2.34,0a2,2,0,0,0,0-4.09Z"/><path class="cls-1" d="M67.72,28.82a4.66,4.66,0,0,1,5,4.88,4.66,4.66,0,0,1-5,4.88,4.66,4.66,0,0,1-5-4.88A4.66,4.66,0,0,1,67.72,28.82Zm0,2.27a2.36,2.36,0,0,0-2.47,2.61,2.48,2.48,0,1,0,5,0A2.37,2.37,0,0,0,67.72,31.09Z"/><path class="cls-1" d="M77.74,29c2.31,0,4.07.75,4.07,3.21s-1.76,3.19-4.07,3.21H76.51v2.94H74V29Zm.12,2.14H76.51V33.3h1.35c.75,0,1.41-.23,1.41-1.07S78.61,31.16,77.86,31.16Z"/><path class="cls-1" d="M89.73,29v2.14H85.46v1.43h3.87v2.12H85.46v1.53h4.35v2.14H83V29Z"/><path class="cls-1" d="M91.24,38.38V29h2.47v3.54h1.18L97,29h2.74l-3,4.56,3.08,4.8H97.15l-2.27-3.61H93.71v3.61Z"/><path class="cls-1" d="M104.82,28.82a6.39,6.39,0,0,1,2.72.59v2.34a3.61,3.61,0,0,0-2.29-.77,2.71,2.71,0,0,0-3,2.85c0,1.82,1.47,2.57,2.92,2.57a3.47,3.47,0,0,0,2.39-.82V38a6.31,6.31,0,0,1-2.73.59c-2.57,0-5.12-1.41-5.12-4.75A4.74,4.74,0,0,1,104.82,28.82Z"/></g></g></svg>