<?xml version="1.0" encoding="utf-8"?>
<!-- Generator: Adobe Illustrator 23.0.1, SVG Export Plug-In . SVG Version: 6.00 Build 0)  -->
<svg version="1.1" id="Layer_1" xmlns="http://www.w3.org/2000/svg" xmlns:xlink="http://www.w3.org/1999/xlink" x="0px" y="0px"
	 viewBox="0 0 233.3 48.5" style="enable-background:new 0 0 233.3 48.5;" xml:space="preserve">
<style type="text/css">
	.st0{fill:#FFFFFF;}
</style>
<g>
	<g>
		<path class="st0" d="M34.1,0H14.4C6.5,0,0,6.5,0,14.4V34C0,42,6.5,48.5,14.4,48.5H34c7.9,0,14.4-6.5,14.4-14.4V14.4
			C48.5,6.5,42,0,34.1,0z M43,31.7c0,2.5-0.3,4.1-1,5.3c-0.8,1.4-2.3,2.3-4.1,2.3c-1.6,0-3.2-0.8-4.2-2.2c-0.6-0.9-1.2-2-1.7-3.7
			c-1.2,1.7-2.6,3-4,4c-2.2,1.5-4.6,2.2-7.1,2.2c-4.3,0-7.6-1.4-10.4-4.4c-2.6-2.9-4-6.7-4-11.3c0-4.2,1.4-7.9,4.1-10.8
			c2.7-2.9,6.1-4.4,10.1-4.4c2.9,0,5.3,0.9,7.4,2.9c1.2,1.1,2.2,2.7,2.9,4.1c0,0.1,0.1,0.1,0.1,0.2c0.7-3.2,1.4-6.6,1.4-6.6h8
			c0,0-4.2,14.8-5.6,19.4c0.5,1.3,1,2,1.5,2.7c0.4,0.5,1,0.8,1.6,0.8c0.9,0,1.4-0.9,1.5-1.7l0-0.2H43V31.7z"/>
		<path class="st0" d="M21.7,12.8c-2,0-3.5,0.9-4.7,2.8c-1.3,2-1.9,4.9-1.9,8.5c0,3.9,0.6,6.9,1.8,8.9c1.2,1.9,2.7,2.8,4.8,2.8
			c1.8,0,3.3-0.9,4.6-2.7c1.2-1.7,2.2-4.7,3.2-9.7c-0.8-3.7-1.9-6.5-3.2-8.3C24.9,13.5,23.5,12.8,21.7,12.8z"/>
	</g>
	<g>
		<path class="st0" d="M72.7,10c-0.6-2.5-2.1-4.2-5.5-4.2c-3.2,0-5,1.7-5.5,4.2l-2.5,11.2h2.7c0.6,0,1.2-0.5,1.3-1.1l0.5-2.3h7.1
			l0.5,2.3c0.1,0.6,0.7,1.1,1.3,1.1h2.7L72.7,10 M64.4,14.7l0.9-4c0.1-0.6,0.6-1.6,2-1.6c1.3,0,1.8,1,2,1.6l0.9,4H64.4z"/>
		<path class="st0" d="M81.8,9.5h5.9v11.7h3.7V6.2H80.3c-1.2,0-2.2,1-2.2,2.2V16c0,1-0.5,1.7-1.3,1.8L76.1,18l0.7,3.2h0.7
			c2.5,0,4.3-1.9,4.3-5.1L81.8,9.5"/>
		<path class="st0" d="M123.3,6.2H122V4.4h-2.6c-0.6,0-1.1,0.5-1.1,1.1v0.6H117c-4.5,0-7.4,3.1-7.4,7.5c0,4.4,2.8,7.5,7.4,7.5h1.3
			V23h2.6c0.6,0,1.1-0.5,1.1-1.1v-0.7h1.3c4.5,0,7.4-3.1,7.4-7.5C130.7,9.3,127.9,6.2,123.3,6.2 M117,17.9c-2.5,0-3.7-1.6-3.7-4.2
			c0-2.6,1.2-4.2,3.7-4.2h1.3v8.4H117z M123.3,17.9H122V9.5h1.3c2.5,0,3.7,1.6,3.7,4.2C127,16.3,125.8,17.9,123.3,17.9z"/>
		<path class="st0" d="M102.8,10h-5.3V6.2h-3.7v14c0,0.6,0.5,1.1,1.1,1.1h7.8c3.2,0,5.6-2.4,5.6-5.6C108.4,12.4,106.4,10,102.8,10
			 M102.8,17.8h-5.3v-4.5h5.3c0.9,0,1.9,0.8,1.9,2.2C104.7,17,103.7,17.8,102.8,17.8z"/>
		<path class="st0" d="M144.4,10c-0.6-2.5-2.1-4.2-5.5-4.2c-3.2,0-5,1.7-5.5,4.2l-2.5,11.2h2.7c0.6,0,1.2-0.5,1.3-1.1l0.5-2.3h7.1
			l0.5,2.3c0.1,0.6,0.7,1.1,1.3,1.1h2.7L144.4,10 M136,14.7l0.9-4c0.1-0.6,0.6-1.6,2-1.6c1.3,0,1.8,1,2,1.6l0.9,4H136z"/>
	</g>
	<g>
		<path class="st0" d="M165.7,34.5c0.6-0.6,1.1-1.5,1.1-2.7c0-2.7-2.1-4.5-4.7-4.5h-9c-0.6,0-1.1,0.5-1.1,1.1v12.9
			c0,0.6,0.5,1.1,1.1,1.1l9.6,0c2.8,0,4.7-2,4.7-4.7C167.3,36.3,166.7,35.3,165.7,34.5 M162,30.4c0.5,0,1.2,0.5,1.2,1.5
			c0,0.9-0.7,1.4-1.2,1.5h-6.5v-3L162,30.4L162,30.4z M162.3,39.2h-6.8v-3h6.8c0.5,0.1,1.2,0.5,1.2,1.5
			C163.5,38.7,162.8,39.2,162.3,39.2z"/>
		<path class="st0" d="M141.4,26.9c-4.5,0-7.7,3.2-7.7,7.9c0,4.6,3.2,7.9,7.7,7.9h1.3c4.5,0,7.7-3.2,7.7-7.9c0-4.6-3.2-7.9-7.7-7.9
			L141.4,26.9 M137.7,34.8c0-2.7,1.4-4.8,4-4.8h0.8c2.5,0,4,2.1,4,4.8s-1.4,4.8-4,4.8h-0.8C139.1,39.6,137.7,37.5,137.7,34.8z"/>
		<path class="st0" d="M72.9,27.3l0.5,2.3c0.1,0.6,0.7,1.1,1.3,1.1h3.4v11.7h3.7V30.7h3.3c0.6,0,1.2-0.5,1.3-1.1l0.5-2.3L72.9,27.3"
			/>
		<polyline class="st0" points="196.7,27.3 196.7,33.3 189.5,33.3 189.5,27.3 185.8,27.3 185.8,42.3 189.5,42.3 189.5,36.5 
			196.7,36.5 196.7,42.3 200.3,42.3 200.3,27.3 196.7,27.3 		"/>
		<path class="st0" d="M115.6,31.1c-0.6-2.5-2.1-4.2-5.5-4.2c-3.2,0-5,1.7-5.5,4.2l-2.5,11.2h2.7c0.6,0,1.2-0.5,1.3-1.1l0.5-2.3h7
			l0.5,2.3c0.1,0.6,0.7,1.1,1.3,1.1h2.7L115.6,31.1 M107.3,35.8l0.9-4c0.1-0.6,0.6-1.6,2-1.6c1.3,0,1.8,1,2,1.6l0.9,4L107.3,35.8
			L107.3,35.8z"/>
		<path class="st0" d="M181.7,31.1c-0.6-2.5-2.1-4.2-5.5-4.2c-3.2,0-5,1.7-5.5,4.2l-2.5,11.2h2.7c0.6,0,1.2-0.5,1.3-1.1l0.5-2.3h7.1
			l0.5,2.3c0.1,0.6,0.7,1.1,1.3,1.1h2.7L181.7,31.1 M173.3,35.8l0.9-4c0.1-0.6,0.6-1.6,2-1.6s1.8,1,2,1.6l0.9,4L173.3,35.8
			L173.3,35.8z"/>
		<path class="st0" d="M74,42.3L74,42.3l-7.2,0c-4.3,0-7.4-3.1-7.4-7.5c0-4.4,3-7.5,7.4-7.5h5.4l-0.5,2.3c-0.1,0.6-0.7,1.1-1.4,1.1
			h-3.6c-2.3,0-3.7,1.7-3.7,4.1c0,2.4,1.4,4.1,3.7,4.1h5.3c0.6,0,1.2,0.5,1.3,1.1L74,42.3"/>
		<path class="st0" d="M96.8,27.3l-7.8,0c-0.6,0-1.1,0.5-1.1,1.1v14h3.7v-3.8h5.3c3.6,0,5.6-2.4,5.6-5.6
			C102.4,29.7,100,27.3,96.8,27.3 M96.8,35.1h-5.3v-4.5h5.3c0.9,0,1.9,0.8,1.9,2.2C98.7,34.3,97.7,35.1,96.8,35.1z"/>
		<path class="st0" d="M231.5,39.2h-7.9v-2.9h8.6v-2.9h-8.6v-2.9h7.9c0.7,0,1.2-0.3,1.3-1.1l0.5-2.1H221c-0.6,0-1.1,0.5-1.1,1.1
			v12.9c0,0.6,0.5,1.1,1.1,1.1h12.3l-0.5-2.1C232.7,39.4,232.1,39.2,231.5,39.2"/>
		<path class="st0" d="M202.9,42.3V27.3h3.7v9.9l6.4-9c0.4-0.5,1.1-0.9,1.8-0.9h2.7v15.1h-3.7v-9.9l-6.4,9c-0.4,0.5-1.1,0.9-1.8,0.9
			H202.9"/>
		<path class="st0" d="M129.2,34.7l5.1-7.4H131c-0.7,0-1.2,0.2-1.7,0.9l-2.7,4.3H126l-2.7-4.3c-0.4-0.7-1-0.9-1.7-0.9h-3.5l5.2,7.6
			l-5.1,7.4h3.4c0.7,0,1.2-0.2,1.7-0.9l2.7-4.3h0.5l2.7,4.3c0.5,0.7,1,0.9,1.7,0.9h3.5L129.2,34.7"/>
	</g>
</g>
</svg>
