<?xml version="1.0" encoding="utf-8"?>
<!-- Generator: Adobe Illustrator 23.0.2, SVG Export Plug-In . SVG Version: 6.00 Build 0)  -->
<svg version="1.1" id="Layer_1" xmlns="http://www.w3.org/2000/svg" xmlns:xlink="http://www.w3.org/1999/xlink" x="0px" y="0px"
	 viewBox="0 0 87 31.6" style="enable-background:new 0 0 87 31.6;" xml:space="preserve">
<style type="text/css">
	.st0{fill:#BA2026;}
	.st1{fill:#231F20;}
</style>
<g>
	<path class="st0" d="M0,0v31.6h32.8V0H0z M16,27.2L5.3,4.4h6.5L19,20.1L16,27.2z M24.7,27.2L13.9,4.4h6.6l7.3,15.6L24.7,27.2z"/>
	<g>
		<path class="st1" d="M38.4,24.3L34.3,7.3h3.6L40.5,19l3.1-11.7h4.1l3,11.9l2.6-11.9h3.4l-4.2,17.1H49l-3.4-12.8l-3.4,12.8H38.4z"
			/>
		<path class="st1" d="M68.8,18.1l3.3,1.1c-0.5,1.9-1.3,3.2-2.6,4.2c-1.2,0.9-2.7,1.3-4.5,1.3c-2.3,0-4.1-0.8-5.6-2.3
			c-1.4-1.5-2.2-3.7-2.2-6.3c0-2.8,0.7-5,2.2-6.6C60.8,7.8,62.8,7,65.2,7c2.1,0,3.8,0.6,5.1,1.9C71,9.6,71.6,10.7,72,12l-3.4,0.8
			c-0.2-0.9-0.6-1.6-1.3-2.1c-0.6-0.5-1.4-0.8-2.3-0.8c-1.3,0-2.3,0.5-3.1,1.3c-0.8,0.9-1.2,2.4-1.2,4.4c0,2.2,0.4,3.7,1.2,4.6
			c0.8,0.9,1.8,1.4,3,1.4c0.9,0,1.7-0.3,2.4-0.9C68,20.2,68.5,19.3,68.8,18.1z"/>
		<path class="st1" d="M73.2,18.8l3.3-0.3c0.2,1.1,0.6,2,1.2,2.5s1.4,0.8,2.5,0.8c1.1,0,2-0.3,2.5-0.7c0.6-0.5,0.8-1,0.8-1.6
			c0-0.4-0.1-0.8-0.4-1c-0.3-0.3-0.7-0.5-1.2-0.7c-0.4-0.2-1.3-0.4-2.8-0.7c-1.9-0.5-3.1-1-3.9-1.7c-1-0.9-1.6-2.1-1.6-3.4
			c0-0.9,0.3-1.7,0.7-2.4C75,8.6,75.7,8,76.6,7.6s2.1-0.6,3.3-0.6c2.2,0,3.8,0.5,4.8,1.4c1.1,0.9,1.6,2.2,1.7,3.8L83,12.3
			c-0.2-0.9-0.5-1.5-0.9-1.9c-0.5-0.4-1.2-0.6-2.2-0.6c-1,0-1.8,0.2-2.4,0.6C77.2,10.7,77,11,77,11.5c0,0.4,0.2,0.8,0.5,1
			c0.4,0.4,1.5,0.7,3.2,1.1c1.7,0.4,2.9,0.8,3.7,1.2c0.8,0.4,1.4,1,1.9,1.8c0.5,0.7,0.7,1.6,0.7,2.7c0,1-0.3,1.9-0.8,2.7
			c-0.6,0.9-1.3,1.5-2.3,1.9c-1,0.4-2.2,0.6-3.7,0.6c-2.2,0-3.8-0.5-5-1.5C74.1,22.1,73.4,20.7,73.2,18.8z"/>
	</g>
</g>
</svg>
