<?xml version="1.0" encoding="UTF-8"?>
<svg width="131px" height="31px" viewBox="0 0 131 31" version="1.1" xmlns="http://www.w3.org/2000/svg" xmlns:xlink="http://www.w3.org/1999/xlink">
    <!-- Generator: Sketch 49.1 (51147) - http://www.bohemiancoding.com/sketch -->
    <title>1_2_withr-other-bank-logo</title>
    <desc>Created with Sketch.</desc>
    <defs></defs>
    <g id="3_internet/mob/meta_trading" stroke="none" stroke-width="1" fill="none" fill-rule="evenodd">
        <g id="1_2_withr-other-bank-logo" transform="translate(1.000000, 1.000000)">
            <path d="M40.056,17.224 C40.056,18.1840048 39.8000026,18.9359973 39.288,19.48 C38.9679984,19.8000016 38.5626691,20.0453325 38.072,20.216 C37.5813309,20.3866675 37.0106699,20.472 36.36,20.472 C36.0719986,20.472 35.7680016,20.4693334 35.448,20.464 C35.1279984,20.4586666 34.8186682,20.4533334 34.52,20.448 C34.2213318,20.4426666 33.938668,20.4346667 33.672,20.424 C33.405332,20.4133333 33.1813342,20.4026667 33,20.392 L33,9.4 C33.1706675,9.38933328 33.3839987,9.37866672 33.64,9.368 C33.8960013,9.35733328 34.1706652,9.34666672 34.464,9.336 C34.7573348,9.32533328 35.0506652,9.31733336 35.344,9.312 C35.6373348,9.30666664 35.9066654,9.304 36.152,9.304 C36.2373338,9.304 36.3253329,9.30666664 36.416,9.312 C36.5066671,9.31733336 36.5946662,9.32 36.68,9.32 C37.1493357,9.32 37.5653315,9.3999992 37.928,9.56 C38.2906685,9.7200008 38.5973321,9.933332 38.848,10.2 C39.0986679,10.466668 39.290666,10.7813315 39.424,11.144 C39.557334,11.5066685 39.624,11.8853314 39.624,12.28 C39.624,12.8240027 39.4933346,13.2826648 39.232,13.656 C38.9706654,14.0293352 38.5466696,14.3226656 37.96,14.536 C38.6533368,14.6853341 39.1759982,15.0053309 39.528,15.496 C39.8800018,15.9866691 40.056,16.5626634 40.056,17.224 Z M37.576,12.472 C37.576,12.0559979 37.4666678,11.7360011 37.248,11.512 C37.0293322,11.2879989 36.7120021,11.176 36.296,11.176 L35.592,11.176 C35.399999,11.176 35.2026677,11.1813333 35,11.192 L35,13.784 L36.152,13.784 C36.6000022,13.784 36.957332,13.6613346 37.224,13.416 C37.4586678,13.1919989 37.576,12.8773354 37.576,12.472 Z M37.96,16.936 C37.96,16.5413314 37.8160014,16.2000014 37.528,15.912 C37.2186651,15.6026651 36.8080026,15.448 36.296,15.448 L35,15.448 L35,18.6 L36.28,18.6 C36.8026693,18.6 37.2133318,18.4640014 37.512,18.192 C37.8106682,17.9199986 37.96,17.5013362 37.96,16.936 Z M47.32,20.296 L47.32,22.216 L45.352,22.216 L45.352,18.776 L45.416,18.776 C45.7360016,18.6373326 45.9893324,18.4400013 46.176,18.184 C46.3626676,17.9279987 46.5039995,17.6320017 46.6,17.296 C46.6960005,16.9599983 46.7546666,16.5893354 46.776,16.184 C46.7973334,15.7786646 46.808,15.3520022 46.808,14.904 L46.808,12.968 C47.3520027,12.8079992 47.853331,12.6933337 48.312,12.624 C48.770669,12.5546663 49.2399976,12.52 49.72,12.52 C50.1680022,12.52 50.6319976,12.5546663 51.112,12.624 C51.5920024,12.6933337 52.1039973,12.8079992 52.648,12.968 L52.648,18.68 L53.544,18.68 L53.544,22.216 L51.576,22.216 L51.576,20.296 L47.32,20.296 Z M49.688,14.152 C49.3573317,14.152 49.0373349,14.189333 48.728,14.264 L48.728,15 C48.728,15.4266688 48.7146668,15.8213315 48.688,16.184 C48.6613332,16.5466685 48.6080004,16.8799985 48.528,17.184 C48.4479996,17.4880015 48.3333341,17.7626654 48.184,18.008 C48.0346659,18.2533346 47.8320013,18.4773323 47.576,18.68 L50.584,18.68 L50.584,14.264 C50.4133325,14.2213331 50.2666673,14.1920001 50.144,14.176 C50.0213327,14.1599999 49.8693342,14.152 49.688,14.152 Z M58.696,20.424 C58.3653317,20.424 58.0426682,20.3786671 57.728,20.288 C57.4133318,20.1973329 57.1653342,20.0986672 56.984,19.992 L56.984,23.16 L55.016,23.16 L55.016,13.096 C55.4533355,12.9466659 55.9706637,12.8186672 56.568,12.712 C57.1653363,12.6053328 57.7839968,12.552 58.424,12.552 C58.9360026,12.552 59.3973313,12.6266659 59.808,12.776 C60.2186687,12.9253341 60.5679986,13.1573318 60.856,13.472 C61.1440014,13.7866682 61.3653326,14.1919975 61.52,14.688 C61.6746674,15.1840025 61.752,15.7786632 61.752,16.472 C61.752,17.0906698 61.6720008,17.6453309 61.512,18.136 C61.3519992,18.6266691 61.1360014,19.0399983 60.864,19.376 C60.5919986,19.7120017 60.2693352,19.9706658 59.896,20.152 C59.5226648,20.3333342 59.1226688,20.424 58.696,20.424 Z M58.184,14.184 C57.9813323,14.184 57.7786677,14.1973332 57.576,14.224 C57.3733323,14.2506668 57.176001,14.301333 56.984,14.376 L56.984,18.472 C57.1973344,18.6106674 57.3919991,18.7039998 57.568,18.752 C57.7440009,18.8000002 57.9386656,18.824 58.152,18.824 C58.5893355,18.824 58.9546652,18.6053355 59.248,18.168 C59.5413348,17.7306645 59.688,17.1653368 59.688,16.472 C59.688,16.1413317 59.6640002,15.8346681 59.616,15.552 C59.5679998,15.2693319 59.4880006,15.0266677 59.376,14.824 C59.2639994,14.6213323 59.1093343,14.4640006 58.912,14.352 C58.7146657,14.2399994 58.4720014,14.184 58.184,14.184 Z M65.96,20.136 C65.9386666,20.1466667 65.8826671,20.1546666 65.792,20.16 C65.7013329,20.1653334 65.6133338,20.168 65.528,20.168 C65.3039989,20.168 65.1013342,20.1413336 64.92,20.088 L62.504,12.696 L64.696,12.696 L65.672,16.248 C65.7253336,16.440001 65.8079994,16.7679977 65.92,17.232 C66.0320006,17.6960023 66.1573326,18.3066629 66.296,19.064 L66.328,19.064 C66.4666674,18.2853294 66.5813329,17.6533358 66.672,17.168 C66.7626671,16.6826642 66.8239998,16.3760006 66.856,16.248 L67.656,12.696 L69.864,12.696 L68.248,18.408 C68.0453323,19.1546704 67.8666674,19.8266637 67.712,20.424 C67.5573326,21.0213363 67.3626678,21.5279979 67.128,21.944 C66.8933322,22.3600021 66.5866686,22.6799989 66.208,22.904 C65.8293314,23.1280011 65.3093366,23.24 64.648,23.24 C64.3706653,23.24 64.0746682,23.1973338 63.76,23.112 C63.4453318,23.0266662 63.0800021,22.8933342 62.664,22.712 L63.128,21.272 C63.4480016,21.3893339 63.7279988,21.4719998 63.968,21.52 C64.2080012,21.5680002 64.423999,21.592 64.616,21.592 C64.957335,21.592 65.2133325,21.5226674 65.384,21.384 C65.5546675,21.2453326 65.677333,21.0533346 65.752,20.808 L65.96,20.136 Z M70.936,12.744 C71.0960008,12.7226666 71.2853322,12.7013334 71.504,12.68 C71.7226678,12.6586666 71.9493322,12.6400001 72.184,12.624 C72.4186678,12.6079999 72.6479989,12.5973334 72.872,12.592 C73.0960011,12.5866666 73.2986658,12.584 73.48,12.584 C73.8533352,12.584 74.2586645,12.6026665 74.696,12.64 C75.1333355,12.6773335 75.5546646,12.7279997 75.96,12.792 L75.88,14.392 C75.538665,14.3386664 75.2240014,14.3040001 74.936,14.288 C74.6479986,14.2719999 74.3653347,14.264 74.088,14.264 C73.8853323,14.264 73.6906676,14.2693333 73.504,14.28 C73.3173324,14.2906667 73.1173344,14.3066666 72.904,14.328 L72.904,20.296 L70.936,20.296 L70.936,12.744 Z M80.344,18.968 C80.5253342,18.968 80.7093324,18.9333337 80.896,18.864 C81.0826676,18.7946663 81.2506659,18.6693342 81.4,18.488 C81.5493341,18.3066658 81.6693329,18.0560016 81.76,17.736 C81.8506671,17.4159984 81.896,17.0053358 81.896,16.504 C81.896,16.0133309 81.8506671,15.6080016 81.76,15.288 C81.6693329,14.9679984 81.5493341,14.7200009 81.4,14.544 C81.2506659,14.3679991 81.0826676,14.2453337 80.896,14.176 C80.7093324,14.1066663 80.5253342,14.072 80.344,14.072 C80.1626658,14.072 79.9786676,14.1066663 79.792,14.176 C79.6053324,14.2453337 79.4373341,14.3679991 79.288,14.544 C79.1386659,14.7200009 79.0186671,14.9679984 78.928,15.288 C78.8373329,15.6080016 78.792,16.0133309 78.792,16.504 C78.792,17.0053358 78.8373329,17.4159984 78.928,17.736 C79.0186671,18.0560016 79.1386659,18.3066658 79.288,18.488 C79.4373341,18.6693342 79.6053324,18.7946663 79.792,18.864 C79.9786676,18.9333337 80.1626658,18.968 80.344,18.968 Z M80.344,20.52 C79.810664,20.52 79.3253355,20.4293342 78.888,20.248 C78.4506645,20.0666658 78.0773349,19.805335 77.768,19.464 C77.4586651,19.122665 77.2186675,18.7066691 77.048,18.216 C76.8773325,17.7253309 76.792,17.176003 76.792,16.568 C76.792,15.9813304 76.8639993,15.4426691 77.008,14.952 C77.1520007,14.4613309 77.3733318,14.0346685 77.672,13.672 C77.9706682,13.3093315 78.3413311,13.0266677 78.784,12.824 C79.2266689,12.6213323 79.7466637,12.52 80.344,12.52 C80.9413363,12.52 81.4613311,12.6213323 81.904,12.824 C82.3466689,13.0266677 82.7173318,13.3093315 83.016,13.672 C83.3146682,14.0346685 83.5359993,14.4613309 83.68,14.952 C83.8240007,15.4426691 83.896,15.9813304 83.896,16.568 C83.896,17.176003 83.8106675,17.7253309 83.64,18.216 C83.4693325,18.7066691 83.2293349,19.122665 82.92,19.464 C82.6106651,19.805335 82.2373355,20.0666658 81.8,20.248 C81.3626645,20.4293342 80.877336,20.52 80.344,20.52 Z M88.664,11.928 C87.8426626,11.928 87.2080022,11.7386686 86.76,11.36 C86.3119978,10.9813314 86.088,10.5040029 86.088,9.928 C86.088,9.83199952 86.0986666,9.74133376 86.12,9.656 L87.656,9.528 C87.656,9.80533472 87.7253326,10.0506656 87.864,10.264 C88.0026674,10.4773344 88.2693314,10.584 88.664,10.584 C89.0586686,10.584 89.3253326,10.4773344 89.464,10.264 C89.6026674,10.0506656 89.672,9.80533472 89.672,9.528 L91.208,9.656 C91.2293334,9.74133376 91.24,9.83199952 91.24,9.928 C91.24,10.5040029 91.0160022,10.9813314 90.568,11.36 C90.1199978,11.7386686 89.4853374,11.928 88.664,11.928 Z M87.56,20.296 L85.4,20.296 L85.4,12.696 L87.368,12.696 L87.352,16.072 C87.352,16.1786672 87.3493334,16.3119992 87.344,16.472 C87.3386666,16.6320008 87.3306667,16.7973325 87.32,16.968 C87.3093333,17.1386675 87.3013334,17.3039992 87.296,17.464 C87.2906666,17.6240008 87.2826667,17.7519995 87.272,17.848 L87.336,17.848 C87.5493344,17.3999978 87.7333326,16.9946685 87.888,16.632 C88.0426674,16.2693315 88.1893326,15.9600013 88.328,15.704 L89.752,12.696 L91.912,12.696 L91.912,20.296 L89.944,20.296 L89.944,16.904 C89.944,16.7653326 89.9466666,16.5840011 89.952,16.36 C89.9573334,16.1359989 89.9759998,15.7733358 90.008,15.272 L89.944,15.272 C89.677332,15.8160027 89.4746674,16.258665 89.336,16.6 C89.1973326,16.941335 89.0800005,17.2026658 88.984,17.384 L87.56,20.296 Z M99.48,14.456 C99.7040011,14.0399979 100.026665,13.7013346 100.448,13.44 C100.869335,13.1786654 101.335997,13.048 101.848,13.048 C102.797338,13.048 103.554664,13.3573302 104.12,13.976 C104.685336,14.5946698 104.968,15.5013274 104.968,16.696 C104.968,17.3573366 104.872001,17.9306642 104.68,18.416 C104.487999,18.9013358 104.229335,19.3013318 103.904,19.616 C103.578665,19.9306682 103.208002,20.1653326 102.792,20.32 C102.375998,20.4746674 101.944002,20.552 101.496,20.552 C101.314666,20.552 101.093335,20.5333335 100.832,20.496 C100.570665,20.4586665 100.298668,20.3786673 100.016,20.256 C99.7333319,20.1333327 99.4560014,19.9546678 99.184,19.72 C98.9119986,19.4853322 98.6746677,19.1653354 98.472,18.76 C98.2586656,18.3546646 98.1173337,17.8880026 98.048,17.36 C97.9786663,16.8319974 97.944,16.3226691 97.944,15.832 C97.944,15.2559971 97.9679998,14.7440022 98.016,14.296 C98.0640002,13.8479978 98.1679992,13.4053355 98.328,12.968 C98.5093342,12.4879976 98.8053313,12.0160023 99.216,11.552 C99.6266687,11.0879977 100.14133,10.722668 100.76,10.456 L104.232,9 L104.936,10.616 L101.272,12.088 C101.165333,12.1306669 101.013334,12.1999995 100.816,12.296 C100.618666,12.3920005 100.421334,12.5253325 100.224,12.696 C100.026666,12.8666675 99.8506674,13.0746654 99.696,13.32 C99.5413326,13.5653346 99.4533334,13.8639982 99.432,14.216 L99.416,14.456 L99.48,14.456 Z M101.496,19.032 C101.805335,19.032 102.047999,18.9546674 102.224,18.8 C102.400001,18.6453326 102.530666,18.4533345 102.616,18.224 C102.701334,17.9946655 102.754667,17.7440014 102.776,17.472 C102.797333,17.1999986 102.808,16.9413346 102.808,16.696 C102.808,16.4613322 102.797333,16.2186679 102.776,15.968 C102.754667,15.7173321 102.701334,15.488001 102.616,15.28 C102.530666,15.071999 102.400001,14.901334 102.224,14.768 C102.047999,14.634666 101.805335,14.568 101.496,14.568 C101.186665,14.568 100.944001,14.634666 100.768,14.768 C100.591999,14.901334 100.461334,15.071999 100.376,15.28 C100.290666,15.488001 100.237333,15.7173321 100.216,15.968 C100.194667,16.2186679 100.184,16.4613322 100.184,16.696 C100.184,16.9413346 100.194667,17.1999986 100.216,17.472 C100.237333,17.7440014 100.290666,17.9946655 100.376,18.224 C100.461334,18.4533345 100.591999,18.6453326 100.768,18.8 C100.944001,18.9546674 101.186665,19.032 101.496,19.032 Z M111.672,20.456 C111.586666,20.4346666 111.464001,20.3600006 111.304,20.232 C111.143999,20.1039994 111.016,19.9653341 110.92,19.816 C110.749332,19.9333339 110.621334,20.0133331 110.536,20.056 C110.450666,20.0986669 110.344001,20.1466664 110.216,20.2 C110.002666,20.2853338 109.768001,20.3519998 109.512,20.4 C109.255999,20.4480002 109.000001,20.472 108.744,20.472 C108.402665,20.472 108.080002,20.4213338 107.776,20.32 C107.471998,20.2186662 107.208001,20.0693343 106.984,19.872 C106.759999,19.6746657 106.581334,19.4293348 106.448,19.136 C106.314666,18.8426652 106.248,18.5093352 106.248,18.136 C106.248,17.335996 106.506664,16.7040023 107.024,16.24 C107.541336,15.7759977 108.301328,15.544 109.304,15.544 C109.496001,15.544 109.674666,15.5573332 109.84,15.584 C110.005334,15.6106668 110.162666,15.6453331 110.312,15.688 L110.312,15.32 C110.312,15.0746654 110.298667,14.8746674 110.272,14.72 C110.245333,14.5653326 110.181334,14.4453338 110.08,14.36 C109.978666,14.2746662 109.829334,14.2160002 109.632,14.184 C109.434666,14.1519998 109.170668,14.136 108.84,14.136 C108.626666,14.136 108.381335,14.1493332 108.104,14.176 C107.826665,14.2026668 107.549335,14.2373331 107.272,14.28 L106.968,12.808 C107.778671,12.6053323 108.637329,12.504 109.544,12.504 C110.173336,12.504 110.666665,12.570666 111.024,12.704 C111.381335,12.837334 111.661332,13.0426653 111.864,13.32 C111.938667,13.4160005 112.002666,13.5199994 112.056,13.632 C112.109334,13.7440006 112.152,13.8719993 112.184,14.016 C112.216,14.1600007 112.24,14.3306657 112.256,14.528 C112.272,14.7253343 112.28,14.9626653 112.28,15.24 L112.28,17.288 C112.28,17.5440013 112.290667,17.767999 112.312,17.96 C112.333333,18.152001 112.368,18.3333325 112.416,18.504 C112.464,18.6746675 112.533333,18.8426658 112.624,19.008 C112.714667,19.1733342 112.823999,19.3573323 112.952,19.56 L111.672,20.456 Z M110.408,18.696 C110.365333,18.5679994 110.338667,18.4053343 110.328,18.208 C110.317333,18.0106657 110.312,17.7626682 110.312,17.464 L110.312,16.92 C110.258666,16.8986666 110.176001,16.8800001 110.064,16.864 C109.951999,16.8479999 109.837334,16.84 109.72,16.84 C109.218664,16.84 108.842668,16.9146659 108.592,17.064 C108.341332,17.2133341 108.216,17.4799981 108.216,17.864 C108.216,18.2373352 108.311999,18.4986659 108.504,18.648 C108.696001,18.7973341 108.973332,18.872 109.336,18.872 C109.517334,18.872 109.687999,18.8640001 109.848,18.848 C110.008001,18.8319999 110.194666,18.7813338 110.408,18.696 Z M118.648,20.296 L118.648,17.192 L116.376,17.192 L116.376,20.296 L114.392,20.296 L114.392,12.696 L116.376,12.696 L116.376,15.576 L118.648,15.576 L118.648,12.696 L120.648,12.696 L120.648,20.296 L118.648,20.296 Z M127,20.296 L126.552,19.232 C126.423999,18.9279985 126.317334,18.680001 126.232,18.488 C126.125333,18.2639989 126.04,18.0773341 125.976,17.928 C125.912,17.7679992 125.850667,17.6400005 125.792,17.544 C125.733333,17.4479995 125.669334,17.3733336 125.6,17.32 C125.530666,17.2666664 125.448,17.2320001 125.352,17.216 C125.256,17.1999999 125.138667,17.192 125,17.192 L124.728,17.192 L124.728,20.296 L122.728,20.296 L122.728,12.696 L124.728,12.696 L124.728,15.56 L125.064,15.56 C125.320001,15.56 125.493333,15.5146671 125.584,15.424 C125.674667,15.3333329 125.768,15.1866677 125.864,14.984 C125.96,14.791999 126.048,14.6106675 126.128,14.44 C126.208,14.2693325 126.296,14.088001 126.392,13.896 C126.477334,13.7146658 126.56,13.5520007 126.64,13.408 C126.72,13.2639993 126.813333,13.1386672 126.92,13.032 C127.058667,12.8933326 127.202666,12.786667 127.352,12.712 C127.501334,12.637333 127.714665,12.5893334 127.992,12.568 C128.152001,12.5573333 128.311999,12.5546666 128.472,12.56 C128.632001,12.5653334 128.786666,12.5786666 128.936,12.6 L128.824,13.976 C128.749333,13.9546666 128.685334,13.9493333 128.632,13.96 C128.578666,13.9706667 128.530667,13.9866666 128.488,14.008 C128.445333,14.0293334 128.402667,14.0559998 128.36,14.088 C128.264,14.1733338 128.176,14.282666 128.096,14.416 C128.016,14.549334 127.890668,14.7973315 127.72,15.16 C127.538666,15.5440019 127.365334,15.8106659 127.2,15.96 C127.034666,16.1093341 126.845334,16.2053331 126.632,16.248 L126.632,16.296 C126.941335,16.370667 127.178666,16.503999 127.344,16.696 C127.509334,16.888001 127.666666,17.1386651 127.816,17.448 C127.88,17.5760006 127.970666,17.7626654 128.088,18.008 C128.194667,18.2213344 128.333332,18.5119982 128.504,18.88 C128.674668,19.2480018 128.898665,19.7199971 129.176,20.296 L127,20.296 Z" id="В-другой-банк" fill="#E30000"></path>
            <path d="M11.1745931,0.054317876 L21.8012557,6.2411485 C21.924308,6.31278939 22,6.44444284 22,6.58683062 L22,8.53685718 C22,8.75777108 21.8209139,8.93685718 21.6,8.93685718 L0.4,8.93685718 C0.1790861,8.93685718 1.34117585e-15,8.75777108 3.33066907e-16,8.53685718 L-8.32667268e-16,6.58625888 C-8.50067142e-16,6.44417813 0.0753685989,6.31276044 0.198001569,6.24101022 L10.7713389,0.0547513452 C10.8958455,-0.01809508 11.0499302,-0.01826071 11.1745931,0.054317876 Z M16.4,12.9368572 L19.6,12.9368572 C19.8209139,12.9368572 20,13.1159433 20,13.3368572 L20,20.5368572 C20,20.7577711 19.8209139,20.9368572 19.6,20.9368572 L16.4,20.9368572 C16.1790861,20.9368572 16,20.7577711 16,20.5368572 L16,13.3368572 C16,13.1159433 16.1790861,12.9368572 16.4,12.9368572 Z M0,28.5368572 L1.11022302e-16,25.3368572 C8.39681524e-17,25.1159433 0.1790861,24.9368572 0.4,24.9368572 L21.6,24.9368572 C21.8209139,24.9368572 22,25.1159433 22,25.3368572 L22,28.5368572 C22,28.7577711 21.8209139,28.9368572 21.6,28.9368572 L0.4,28.9368572 C0.1790861,28.9368572 3.60121057e-16,28.7577711 3.33066907e-16,28.5368572 Z M9.4,12.9368572 L12.6,12.9368572 C12.8209139,12.9368572 13,13.1159433 13,13.3368572 L13,20.5368572 C13,20.7577711 12.8209139,20.9368572 12.6,20.9368572 L9.4,20.9368572 C9.1790861,20.9368572 9,20.7577711 9,20.5368572 L9,13.3368572 C9,13.1159433 9.1790861,12.9368572 9.4,12.9368572 Z M2.4,12.9368572 L5.6,12.9368572 C5.8209139,12.9368572 6,13.1159433 6,13.3368572 L6,20.5368572 C6,20.7577711 5.8209139,20.9368572 5.6,20.9368572 L2.4,20.9368572 C2.1790861,20.9368572 2,20.7577711 2,20.5368572 L2,13.3368572 C2,13.1159433 2.1790861,12.9368572 2.4,12.9368572 Z" id="" stroke="#E30000"></path>
        </g>
    </g>
</svg>