<?xml version="1.0" encoding="UTF-8"?>
<svg width="119px" height="31px" viewBox="0 0 119 31" version="1.1" xmlns="http://www.w3.org/2000/svg" xmlns:xlink="http://www.w3.org/1999/xlink">
    <!-- Generator: Sketch 49.1 (51147) - http://www.bohemiancoding.com/sketch -->
    <title>2_2_other-bank-logo</title>
    <desc>Created with Sketch.</desc>
    <defs></defs>
    <g id="3_internet/mob/meta_trading" stroke="none" stroke-width="1" fill="none" fill-rule="evenodd">
        <g id="2_2_other-bank-logo" transform="translate(1.000000, 1.000000)">
            <g id="Group-57-Copy-2" stroke="#E30000">
                <path d="M11.1745931,0.054317876 L21.8012557,6.2411485 C21.924308,6.31278939 22,6.44444284 22,6.58683062 L22,8.53685718 C22,8.75777108 21.8209139,8.93685718 21.6,8.93685718 L0.4,8.93685718 C0.1790861,8.93685718 1.34117585e-15,8.75777108 3.33066907e-16,8.53685718 L-8.32667268e-16,6.58625888 C-8.50067142e-16,6.44417813 0.0753685989,6.31276044 0.198001569,6.24101022 L10.7713389,0.0547513452 C10.8958455,-0.01809508 11.0499302,-0.01826071 11.1745931,0.054317876 Z M16.4,12.9368572 L19.6,12.9368572 C19.8209139,12.9368572 20,13.1159433 20,13.3368572 L20,20.5368572 C20,20.7577711 19.8209139,20.9368572 19.6,20.9368572 L16.4,20.9368572 C16.1790861,20.9368572 16,20.7577711 16,20.5368572 L16,13.3368572 C16,13.1159433 16.1790861,12.9368572 16.4,12.9368572 Z M0,28.5368572 L1.11022302e-16,25.3368572 C8.39681524e-17,25.1159433 0.1790861,24.9368572 0.4,24.9368572 L21.6,24.9368572 C21.8209139,24.9368572 22,25.1159433 22,25.3368572 L22,28.5368572 C22,28.7577711 21.8209139,28.9368572 21.6,28.9368572 L0.4,28.9368572 C0.1790861,28.9368572 3.60121057e-16,28.7577711 3.33066907e-16,28.5368572 Z M9.4,12.9368572 L12.6,12.9368572 C12.8209139,12.9368572 13,13.1159433 13,13.3368572 L13,20.5368572 C13,20.7577711 12.8209139,20.9368572 12.6,20.9368572 L9.4,20.9368572 C9.1790861,20.9368572 9,20.7577711 9,20.5368572 L9,13.3368572 C9,13.1159433 9.1790861,12.9368572 9.4,12.9368572 Z M2.4,12.9368572 L5.6,12.9368572 C5.8209139,12.9368572 6,13.1159433 6,13.3368572 L6,20.5368572 C6,20.7577711 5.8209139,20.9368572 5.6,20.9368572 L2.4,20.9368572 C2.1790861,20.9368572 2,20.7577711 2,20.5368572 L2,13.3368572 C2,13.1159433 2.1790861,12.9368572 2.4,12.9368572 Z" id=""></path>
            </g>
            <g id="Group-56-Copy" transform="translate(33.000000, 9.000000)" fill="#E30000">
                <path d="M0.352,9.712 C0.618668,9.51999904 0.8319992,9.27200152 0.992,8.968 C1.1520008,8.66399848 1.2719996,8.33066848 1.352,7.968 C1.4320004,7.60533152 1.48266656,7.21600208 1.504,6.8 C1.52533344,6.38399792 1.536,5.96800208 1.536,5.552 L1.536,0.88 C2.14400304,0.69866576 2.70933072,0.57066704 3.232,0.496 C3.75466928,0.42133296 4.31999696,0.384 4.928,0.384 C5.5146696,0.384 6.07199736,0.42133296 6.6,0.496 C7.12800264,0.57066704 7.69599696,0.69866576 8.304,0.88 L8.304,9.584 L9.216,9.584 L9.216,13.552 L7.168,13.552 L7.168,11.296 L1.968,11.296 L1.968,13.552 L0,13.552 L0,9.92 L0.352,9.712 Z M3.536,6 C3.536,6.73600368 3.43733432,7.4106636 3.24,8.024 C3.04266568,8.6373364 2.7573352,9.1573312 2.384,9.584 L6.144,9.584 L6.144,2.4 C5.96266576,2.3466664 5.7653344,2.3066668 5.552,2.28 C5.3386656,2.2533332 5.10933456,2.24 4.864,2.24 C4.61866544,2.24 4.38133448,2.2533332 4.152,2.28 C3.92266552,2.3066668 3.71733424,2.3466664 3.536,2.4 L3.536,6 Z M14.576,11.424 C14.2453317,11.424 13.9226682,11.3786671 13.608,11.288 C13.2933318,11.1973329 13.0453342,11.0986672 12.864,10.992 L12.864,14.16 L10.896,14.16 L10.896,4.096 C11.3333355,3.94666592 11.8506637,3.8186672 12.448,3.712 C13.0453363,3.6053328 13.6639968,3.552 14.304,3.552 C14.8160026,3.552 15.2773313,3.62666592 15.688,3.776 C16.0986687,3.92533408 16.4479986,4.15733176 16.736,4.472 C17.0240014,4.78666824 17.2453326,5.19199752 17.4,5.688 C17.5546674,6.18400248 17.632,6.7786632 17.632,7.472 C17.632,8.09066976 17.5520008,8.64533088 17.392,9.136 C17.2319992,9.62666912 17.0160014,10.0399983 16.744,10.376 C16.4719986,10.7120017 16.1493352,10.9706658 15.776,11.152 C15.4026648,11.3333342 15.0026688,11.424 14.576,11.424 Z M14.064,5.184 C13.8613323,5.184 13.6586677,5.1973332 13.456,5.224 C13.2533323,5.2506668 13.056001,5.30133296 12.864,5.376 L12.864,9.472 C13.0773344,9.61066736 13.2719991,9.70399976 13.448,9.752 C13.6240009,9.80000024 13.8186656,9.824 14.032,9.824 C14.4693355,9.824 14.8346652,9.60533552 15.128,9.168 C15.4213348,8.73066448 15.568,8.1653368 15.568,7.472 C15.568,7.14133168 15.5440002,6.83466808 15.496,6.552 C15.4479998,6.26933192 15.3680006,6.02666768 15.256,5.824 C15.1439994,5.62133232 14.9893343,5.46400056 14.792,5.352 C14.5946657,5.23999944 14.3520014,5.184 14.064,5.184 Z M21.84,11.136 C21.8186666,11.1466667 21.7626671,11.1546666 21.672,11.16 C21.5813329,11.1653334 21.4933338,11.168 21.408,11.168 C21.1839989,11.168 20.9813342,11.1413336 20.8,11.088 L18.384,3.696 L20.576,3.696 L21.552,7.248 C21.6053336,7.44000096 21.6879994,7.76799768 21.8,8.232 C21.9120006,8.69600232 22.0373326,9.30666288 22.176,10.064 L22.208,10.064 C22.3466674,9.28532944 22.4613329,8.65333576 22.552,8.168 C22.6426671,7.68266424 22.7039998,7.37600064 22.736,7.248 L23.536,3.696 L25.744,3.696 L24.128,9.408 C23.9253323,10.1546704 23.7466674,10.8266637 23.592,11.424 C23.4373326,12.0213363 23.2426678,12.5279979 23.008,12.944 C22.7733322,13.3600021 22.4666686,13.6799989 22.088,13.904 C21.7093314,14.1280011 21.1893366,14.24 20.528,14.24 C20.2506653,14.24 19.9546682,14.1973338 19.64,14.112 C19.3253318,14.0266662 18.9600021,13.8933342 18.544,13.712 L19.008,12.272 C19.3280016,12.3893339 19.6079988,12.4719998 19.848,12.52 C20.0880012,12.5680002 20.303999,12.592 20.496,12.592 C20.837335,12.592 21.0933325,12.5226674 21.264,12.384 C21.4346675,12.2453326 21.557333,12.0533346 21.632,11.808 L21.84,11.136 Z M26.816,3.744 C26.9760008,3.72266656 27.1653322,3.70133344 27.384,3.68 C27.6026678,3.65866656 27.8293322,3.64000008 28.064,3.624 C28.2986678,3.60799992 28.5279989,3.59733336 28.752,3.592 C28.9760011,3.58666664 29.1786658,3.584 29.36,3.584 C29.7333352,3.584 30.1386645,3.60266648 30.576,3.64 C31.0133355,3.67733352 31.4346646,3.72799968 31.84,3.792 L31.76,5.392 C31.418665,5.3386664 31.1040014,5.30400008 30.816,5.288 C30.5279986,5.27199992 30.2453347,5.264 29.968,5.264 C29.7653323,5.264 29.5706676,5.26933328 29.384,5.28 C29.1973324,5.29066672 28.9973344,5.30666656 28.784,5.328 L28.784,11.296 L26.816,11.296 L26.816,3.744 Z M36.224,9.968 C36.4053342,9.968 36.5893324,9.93333368 36.776,9.864 C36.9626676,9.79466632 37.1306659,9.66933424 37.28,9.488 C37.4293341,9.30666576 37.5493329,9.0560016 37.64,8.736 C37.7306671,8.4159984 37.776,8.00533584 37.776,7.504 C37.776,7.01333088 37.7306671,6.6080016 37.64,6.288 C37.5493329,5.9679984 37.4293341,5.72000088 37.28,5.544 C37.1306659,5.36799912 36.9626676,5.24533368 36.776,5.176 C36.5893324,5.10666632 36.4053342,5.072 36.224,5.072 C36.0426658,5.072 35.8586676,5.10666632 35.672,5.176 C35.4853324,5.24533368 35.3173341,5.36799912 35.168,5.544 C35.0186659,5.72000088 34.8986671,5.9679984 34.808,6.288 C34.7173329,6.6080016 34.672,7.01333088 34.672,7.504 C34.672,8.00533584 34.7173329,8.4159984 34.808,8.736 C34.8986671,9.0560016 35.0186659,9.30666576 35.168,9.488 C35.3173341,9.66933424 35.4853324,9.79466632 35.672,9.864 C35.8586676,9.93333368 36.0426658,9.968 36.224,9.968 Z M36.224,11.52 C35.690664,11.52 35.2053355,11.4293342 34.768,11.248 C34.3306645,11.0666658 33.9573349,10.805335 33.648,10.464 C33.3386651,10.122665 33.0986675,9.70666912 32.928,9.216 C32.7573325,8.72533088 32.672,8.17600304 32.672,7.568 C32.672,6.9813304 32.7439993,6.44266912 32.888,5.952 C33.0320007,5.46133088 33.2533318,5.03466848 33.552,4.672 C33.8506682,4.30933152 34.2213311,4.02666768 34.664,3.824 C35.1066689,3.62133232 35.6266637,3.52 36.224,3.52 C36.8213363,3.52 37.3413311,3.62133232 37.784,3.824 C38.2266689,4.02666768 38.5973318,4.30933152 38.896,4.672 C39.1946682,5.03466848 39.4159993,5.46133088 39.56,5.952 C39.7040007,6.44266912 39.776,6.9813304 39.776,7.568 C39.776,8.17600304 39.6906675,8.72533088 39.52,9.216 C39.3493325,9.70666912 39.1093349,10.122665 38.8,10.464 C38.4906651,10.805335 38.1173355,11.0666658 37.68,11.248 C37.2426645,11.4293342 36.757336,11.52 36.224,11.52 Z M44.544,2.928 C43.7226626,2.928 43.0880022,2.73866856 42.64,2.36 C42.1919978,1.98133144 41.968,1.50400288 41.968,0.928 C41.968,0.83199952 41.9786666,0.74133376 42,0.656 L43.536,0.528 C43.536,0.80533472 43.6053326,1.0506656 43.744,1.264 C43.8826674,1.4773344 44.1493314,1.584 44.544,1.584 C44.9386686,1.584 45.2053326,1.4773344 45.344,1.264 C45.4826674,1.0506656 45.552,0.80533472 45.552,0.528 L47.088,0.656 C47.1093334,0.74133376 47.12,0.83199952 47.12,0.928 C47.12,1.50400288 46.8960022,1.98133144 46.448,2.36 C45.9999978,2.73866856 45.3653374,2.928 44.544,2.928 Z M43.44,11.296 L41.28,11.296 L41.28,3.696 L43.248,3.696 L43.232,7.072 C43.232,7.1786672 43.2293334,7.3119992 43.224,7.472 C43.2186666,7.6320008 43.2106667,7.79733248 43.2,7.968 C43.1893333,8.13866752 43.1813334,8.3039992 43.176,8.464 C43.1706666,8.6240008 43.1626667,8.75199952 43.152,8.848 L43.216,8.848 C43.4293344,8.39999776 43.6133326,7.99466848 43.768,7.632 C43.9226674,7.26933152 44.0693326,6.96000128 44.208,6.704 L45.632,3.696 L47.792,3.696 L47.792,11.296 L45.824,11.296 L45.824,7.904 C45.824,7.76533264 45.8266666,7.58400112 45.832,7.36 C45.8373334,7.13599888 45.8559998,6.77333584 45.888,6.272 L45.824,6.272 C45.557332,6.81600272 45.3546674,7.25866496 45.216,7.6 C45.0773326,7.94133504 44.9600005,8.20266576 44.864,8.384 L43.44,11.296 Z M55.36,5.456 C55.5840011,5.03999792 55.9066646,4.70133464 56.328,4.44 C56.7493354,4.17866536 57.2159974,4.048 57.728,4.048 C58.6773381,4.048 59.4346638,4.35733024 60,4.976 C60.5653362,5.59466976 60.848,6.50132736 60.848,7.696 C60.848,8.35733664 60.752001,8.93066424 60.56,9.416 C60.367999,9.90133576 60.109335,10.3013318 59.784,10.616 C59.458665,10.9306682 59.0880021,11.1653326 58.672,11.32 C58.2559979,11.4746674 57.8240022,11.552 57.376,11.552 C57.1946658,11.552 56.9733346,11.5333335 56.712,11.496 C56.4506654,11.4586665 56.1786681,11.3786673 55.896,11.256 C55.6133319,11.1333327 55.3360014,10.9546678 55.064,10.72 C54.7919986,10.4853322 54.5546677,10.1653354 54.352,9.76 C54.1386656,9.35466464 53.9973337,8.88800264 53.928,8.36 C53.8586663,7.83199736 53.824,7.32266912 53.824,6.832 C53.824,6.25599712 53.8479998,5.74400224 53.896,5.296 C53.9440002,4.84799776 54.0479992,4.40533552 54.208,3.968 C54.3893342,3.4879976 54.6853313,3.01600232 55.096,2.552 C55.5066687,2.08799768 56.0213302,1.722668 56.64,1.456 L60.112,0 L60.816,1.616 L57.152,3.088 C57.0453328,3.13066688 56.8933343,3.19999952 56.696,3.296 C56.4986657,3.39200048 56.3013343,3.52533248 56.104,3.696 C55.9066657,3.86666752 55.7306674,4.07466544 55.576,4.32 C55.4213326,4.56533456 55.3333334,4.86399824 55.312,5.216 L55.296,5.456 L55.36,5.456 Z M57.376,10.032 C57.6853349,10.032 57.9279991,9.95466744 58.104,9.8 C58.2800009,9.64533256 58.4106662,9.45333448 58.496,9.224 C58.5813338,8.99466552 58.6346666,8.74400136 58.656,8.472 C58.6773334,8.19999864 58.688,7.94133456 58.688,7.696 C58.688,7.46133216 58.6773334,7.21866792 58.656,6.968 C58.6346666,6.71733208 58.5813338,6.48800104 58.496,6.28 C58.4106662,6.07199896 58.2800009,5.901334 58.104,5.768 C57.9279991,5.634666 57.6853349,5.568 57.376,5.568 C57.0666651,5.568 56.8240009,5.634666 56.648,5.768 C56.4719991,5.901334 56.3413338,6.07199896 56.256,6.28 C56.1706662,6.48800104 56.1173334,6.71733208 56.096,6.968 C56.0746666,7.21866792 56.064,7.46133216 56.064,7.696 C56.064,7.94133456 56.0746666,8.19999864 56.096,8.472 C56.1173334,8.74400136 56.1706662,8.99466552 56.256,9.224 C56.3413338,9.45333448 56.4719991,9.64533256 56.648,9.8 C56.8240009,9.95466744 57.0666651,10.032 57.376,10.032 Z M67.552,11.456 C67.4666662,11.4346666 67.3440008,11.3600006 67.184,11.232 C67.0239992,11.1039994 66.8960005,10.9653341 66.8,10.816 C66.6293325,10.9333339 66.5013338,11.0133331 66.416,11.056 C66.3306662,11.0986669 66.2240006,11.1466664 66.096,11.2 C65.8826656,11.2853338 65.6480013,11.3519998 65.392,11.4 C65.1359987,11.4480002 64.8800013,11.472 64.624,11.472 C64.282665,11.472 63.9600015,11.4213338 63.656,11.32 C63.3519985,11.2186662 63.0880011,11.0693343 62.864,10.872 C62.6399989,10.6746657 62.461334,10.4293348 62.328,10.136 C62.194666,9.8426652 62.128,9.5093352 62.128,9.136 C62.128,8.335996 62.3866641,7.70400232 62.904,7.24 C63.4213359,6.77599768 64.1813283,6.544 65.184,6.544 C65.376001,6.544 65.5546658,6.5573332 65.72,6.584 C65.8853342,6.6106668 66.0426659,6.64533312 66.192,6.688 L66.192,6.32 C66.192,6.07466544 66.1786668,5.87466744 66.152,5.72 C66.1253332,5.56533256 66.0613338,5.44533376 65.96,5.36 C65.8586662,5.27466624 65.7093343,5.21600016 65.512,5.184 C65.3146657,5.15199984 65.0506683,5.136 64.72,5.136 C64.5066656,5.136 64.2613347,5.1493332 63.984,5.176 C63.7066653,5.2026668 63.4293347,5.23733312 63.152,5.28 L62.848,3.808 C63.6586707,3.60533232 64.5173288,3.504 65.424,3.504 C66.0533365,3.504 66.5466649,3.570666 66.904,3.704 C67.2613351,3.837334 67.5413323,4.04266528 67.744,4.32 C67.818667,4.41600048 67.8826664,4.51999944 67.936,4.632 C67.9893336,4.74400056 68.0319998,4.87199928 68.064,5.016 C68.0960002,5.16000072 68.1199999,5.33066568 68.136,5.528 C68.1520001,5.72533432 68.16,5.96266528 68.16,6.24 L68.16,8.288 C68.16,8.54400128 68.1706666,8.76799904 68.192,8.96 C68.2133334,9.15200096 68.2479998,9.33333248 68.296,9.504 C68.3440002,9.67466752 68.4133329,9.84266584 68.504,10.008 C68.5946671,10.1733342 68.7039994,10.3573323 68.832,10.56 L67.552,11.456 Z M66.288,9.696 C66.2453331,9.56799936 66.2186667,9.40533432 66.208,9.208 C66.1973333,9.01066568 66.192,8.76266816 66.192,8.464 L66.192,7.92 C66.1386664,7.89866656 66.0560006,7.88000008 65.944,7.864 C65.8319994,7.84799992 65.7173339,7.84 65.6,7.84 C65.0986642,7.84 64.7226679,7.91466592 64.472,8.064 C64.2213321,8.21333408 64.096,8.47999808 64.096,8.864 C64.096,9.2373352 64.191999,9.49866592 64.384,9.648 C64.576001,9.79733408 64.8533315,9.872 65.216,9.872 C65.3973342,9.872 65.5679992,9.86400008 65.728,9.848 C65.8880008,9.83199992 66.0746656,9.78133376 66.288,9.696 Z M74.528,11.296 L74.528,8.192 L72.256,8.192 L72.256,11.296 L70.272,11.296 L70.272,3.696 L72.256,3.696 L72.256,6.576 L74.528,6.576 L74.528,3.696 L76.528,3.696 L76.528,11.296 L74.528,11.296 Z M82.88,11.296 L82.432,10.232 C82.3039994,9.92799848 82.1973338,9.68000096 82.112,9.488 C82.0053328,9.26399888 81.9200003,9.07733408 81.856,8.928 C81.7919997,8.7679992 81.730667,8.64000048 81.672,8.544 C81.613333,8.44799952 81.5493337,8.3733336 81.48,8.32 C81.4106663,8.2666664 81.3280005,8.23200008 81.232,8.216 C81.1359995,8.19999992 81.0186674,8.192 80.88,8.192 L80.608,8.192 L80.608,11.296 L78.608,11.296 L78.608,3.696 L80.608,3.696 L80.608,6.56 L80.944,6.56 C81.2000013,6.56 81.3733329,6.51466712 81.464,6.424 C81.5546671,6.33333288 81.6479995,6.18666768 81.744,5.984 C81.8400005,5.79199904 81.9279996,5.61066752 82.008,5.44 C82.0880004,5.26933248 82.1759995,5.08800096 82.272,4.896 C82.3573338,4.71466576 82.4399996,4.55200072 82.52,4.408 C82.6000004,4.26399928 82.6933328,4.1386672 82.8,4.032 C82.9386674,3.89333264 83.0826659,3.78666704 83.232,3.712 C83.3813341,3.63733296 83.5946653,3.58933344 83.872,3.568 C84.0320008,3.55733328 84.1919992,3.55466664 84.352,3.56 C84.5120008,3.56533336 84.6666659,3.57866656 84.816,3.6 L84.704,4.976 C84.629333,4.95466656 84.5653336,4.94933328 84.512,4.96 C84.4586664,4.97066672 84.4106669,4.98666656 84.368,5.008 C84.3253331,5.02933344 84.2826669,5.05599984 84.24,5.088 C84.1439995,5.17333376 84.0560004,5.282666 83.976,5.416 C83.8959996,5.549334 83.7706675,5.79733152 83.6,6.16 C83.4186658,6.54400192 83.2453342,6.81066592 83.08,6.96 C82.9146658,7.10933408 82.7253344,7.20533312 82.512,7.248 L82.512,7.296 C82.8213349,7.37066704 83.0586658,7.50399904 83.224,7.696 C83.3893342,7.88800096 83.5466659,8.13866512 83.696,8.448 C83.7600003,8.57600064 83.8506661,8.76266544 83.968,9.008 C84.0746672,9.2213344 84.2133325,9.51199816 84.384,9.88 C84.5546675,10.2480018 84.7786653,10.7199971 85.056,11.296 L82.88,11.296 Z" id="Другой-банк"></path>
            </g>
        </g>
    </g>
</svg>