<?xml version="1.0" encoding="UTF-8"?>
<svg width="152px" height="35px" viewBox="0 0 152 35" version="1.1" xmlns="http://www.w3.org/2000/svg" xmlns:xlink="http://www.w3.org/1999/xlink">
    <!-- Generator: Sketch 49.1 (51147) - http://www.bohemiancoding.com/sketch -->
    <title>Page 1</title>
    <desc>Created with Sketch.</desc>
    <defs></defs>
    <g id="Ввод-и-вывод-средств" stroke="none" stroke-width="1" fill="none" fill-rule="evenodd">
        <g id="AF-deposit--Copy" transform="translate(-192.000000, -551.000000)" fill="#E30000">
            <g id="Page-1" transform="translate(192.000000, 551.000000)">
                <path d="M11.218558,5.63757391 L8.159398,14.8527913 L14.326338,14.8527913 L11.256778,5.63757391 L11.218558,5.63757391 Z M0.497458,30.1749652 C0.307658,30.1749652 0.154518,30.3325304 0.154518,30.5274 L0.154518,34.4459217 C0.154518,34.641313 0.307658,34.7980957 0.497458,34.7980957 L21.976318,34.7980957 C22.164558,34.7980957 22.316398,34.641313 22.316398,34.4459217 L22.316398,30.5274 C22.316398,30.3325304 22.164558,30.1749652 21.976318,30.1749652 L0.497458,30.1749652 Z M11.236758,0.159313043 C13.587418,0.159313043 14.326338,1.84844348 14.943838,3.53966087 C15.205918,4.25470435 21.311498,21.0301826 21.494018,21.5334 C21.545238,21.6721826 21.511438,21.9040957 21.295898,21.9867913 C21.079578,22.0692261 17.906538,23.307313 17.731558,23.373313 C17.556058,23.4395739 17.358458,23.3417478 17.293978,23.1667043 C17.228978,22.9927043 15.914158,19.3360957 15.765438,18.9265304 L6.719258,18.9265304 C6.570538,19.3360957 5.241938,22.9992261 5.180578,23.1667043 C5.119738,23.3341826 4.929678,23.4471391 4.744298,23.373313 C4.558138,23.2989652 1.371058,22.0600957 1.182818,21.9867913 C1.000298,21.9171391 0.916578,21.7092261 0.981318,21.5334 C1.205958,20.9036609 7.218198,4.39818261 7.526298,3.53966087 C8.120918,1.87557391 8.887138,0.159313043 11.236758,0.159313043 Z" id="Fill-1"></path>
                <path d="M42.088,16.608 C42.088,16.7893342 42.0746668,17.050665 42.048,17.392 C42.0213332,17.733335 41.9600005,18.1093313 41.864,18.52 C41.7679995,18.9306687 41.6266676,19.3519978 41.44,19.784 C41.2533324,20.2160022 41.0053349,20.6053316 40.696,20.952 C40.3866651,21.2986684 40.0000023,21.5839989 39.536,21.808 C39.0719977,22.0320011 38.5146699,22.144 37.864,22.144 C37.2133301,22.144 36.6560023,22.0320011 36.192,21.808 C35.7279977,21.5839989 35.3413349,21.2986684 35.032,20.952 C34.7226651,20.6053316 34.4746676,20.2160022 34.288,19.784 C34.1013324,19.3519978 33.9600005,18.9306687 33.864,18.52 C33.7679995,18.1093313 33.7066668,17.733335 33.68,17.392 C33.6533332,17.050665 33.64,16.7893342 33.64,16.608 C33.64,16.4266658 33.6533332,16.1626684 33.68,15.816 C33.7066668,15.4693316 33.7679995,15.0906687 33.864,14.68 C33.9600005,14.2693313 34.1013324,13.8480022 34.288,13.416 C34.4746676,12.9839978 34.7226651,12.5946684 35.032,12.248 C35.3413349,11.9013316 35.7279977,11.6160011 36.192,11.392 C36.6560023,11.1679989 37.2133301,11.056 37.864,11.056 C38.5146699,11.056 39.0719977,11.1679989 39.536,11.392 C40.0000023,11.6160011 40.3866651,11.9013316 40.696,12.248 C41.0053349,12.5946684 41.2533324,12.9839978 41.44,13.416 C41.6266676,13.8480022 41.7679995,14.2693313 41.864,14.68 C41.9600005,15.0906687 42.0213332,15.4693316 42.048,15.816 C42.0746668,16.1626684 42.088,16.4266658 42.088,16.608 Z M37.864,20.496 C38.2693354,20.496 38.5973321,20.3520014 38.848,20.064 C39.0986679,19.7759986 39.2959993,19.4293354 39.44,19.024 C39.5840007,18.6186646 39.6826664,18.1920022 39.736,17.744 C39.7893336,17.2959978 39.816,16.9173349 39.816,16.608 C39.816,16.2453315 39.786667,15.8373356 39.728,15.384 C39.669333,14.9306644 39.5653341,14.504002 39.416,14.104 C39.2666659,13.703998 39.0666679,13.370668 38.816,13.104 C38.5653321,12.837332 38.2480019,12.704 37.864,12.704 C37.4799981,12.704 37.1626679,12.837332 36.912,13.104 C36.6613321,13.370668 36.4613341,13.703998 36.312,14.104 C36.1626659,14.504002 36.058667,14.9306644 36,15.384 C35.941333,15.8373356 35.912,16.2453315 35.912,16.608 C35.912,16.9173349 35.9386664,17.2959978 35.992,17.744 C36.0453336,18.1920022 36.1439993,18.6186646 36.288,19.024 C36.4320007,19.4293354 36.6293321,19.7759986 36.88,20.064 C37.1306679,20.3520014 37.4586646,20.496 37.864,20.496 Z M46.216,14.224 C46.7706694,14.224 47.3199973,14.2399998 47.864,14.272 C48.4080027,14.3040002 48.8879979,14.3626662 49.304,14.448 L49.144,16.144 C48.8666653,16.0906664 48.5840014,16.0560001 48.296,16.04 C48.0079986,16.0239999 47.7520011,16.016 47.528,16.016 L47.16,16.016 L47.16,22 L45.192,22 L45.192,16.016 L44.824,16.016 C44.5999989,16.016 44.3493347,16.0239999 44.072,16.04 C43.7946653,16.0560001 43.5173347,16.0906664 43.24,16.144 L43.048,14.448 C43.4640021,14.3626662 43.9573305,14.3040002 44.528,14.272 C45.0986695,14.2399998 45.6613306,14.224 46.216,14.224 Z M51.848,22 L51.848,23.92 L49.88,23.92 L49.88,20.48 L49.944,20.48 C50.2640016,20.3413326 50.5173324,20.1440013 50.704,19.888 C50.8906676,19.6319987 51.0319995,19.3360017 51.128,19 C51.2240005,18.6639983 51.2826666,18.2933354 51.304,17.888 C51.3253334,17.4826646 51.336,17.0560022 51.336,16.608 L51.336,14.672 C51.8800027,14.5119992 52.381331,14.3973337 52.84,14.328 C53.298669,14.2586663 53.7679976,14.224 54.248,14.224 C54.6960022,14.224 55.1599976,14.2586663 55.64,14.328 C56.1200024,14.3973337 56.6319973,14.5119992 57.176,14.672 L57.176,20.384 L58.072,20.384 L58.072,23.92 L56.104,23.92 L56.104,22 L51.848,22 Z M54.216,15.856 C53.8853317,15.856 53.5653349,15.893333 53.256,15.968 L53.256,16.704 C53.256,17.1306688 53.2426668,17.5253315 53.216,17.888 C53.1893332,18.2506685 53.1360004,18.5839985 53.056,18.888 C52.9759996,19.1920015 52.8613341,19.4666654 52.712,19.712 C52.5626659,19.9573346 52.3600013,20.1813323 52.104,20.384 L55.112,20.384 L55.112,15.968 C54.9413325,15.9253331 54.7946673,15.8960001 54.672,15.88 C54.5493327,15.8639999 54.3973342,15.856 54.216,15.856 Z M62.824,20.624 C63.165335,20.624 63.5093316,20.6026669 63.856,20.56 C64.2026684,20.5173331 64.5573315,20.458667 64.92,20.384 L65.24,21.888 C64.365329,22.1013344 63.5066709,22.208 62.664,22.208 C62.0773304,22.208 61.5760021,22.1386674 61.16,22 C60.7439979,21.8613326 60.3973347,21.6800011 60.12,21.456 C59.8426653,21.2319989 59.6240008,20.9813347 59.464,20.704 C59.3039992,20.4266653 59.1813338,20.1466681 59.096,19.864 C59.0106662,19.5813319 58.9573334,19.3120013 58.936,19.056 C58.9146666,18.7999987 58.904,18.5866675 58.904,18.416 C58.904,17.8186637 58.9866658,17.2640026 59.152,16.752 C59.3173342,16.2399974 59.5599984,15.7973352 59.88,15.424 C60.2000016,15.0506648 60.589331,14.7573344 61.048,14.544 C61.506669,14.3306656 62.0239971,14.224 62.6,14.224 C63.1653362,14.224 63.647998,14.3146658 64.048,14.496 C64.448002,14.6773342 64.7733321,14.930665 65.024,15.256 C65.2746679,15.581335 65.4586661,15.9706644 65.576,16.424 C65.6933339,16.8773356 65.752,17.3759973 65.752,17.92 L65.752,18.72 L61,18.72 C61,18.9973347 61.029333,19.2533322 61.088,19.488 C61.146667,19.7226678 61.2479993,19.9226658 61.392,20.088 C61.5360007,20.2533342 61.7253322,20.3839995 61.96,20.48 C62.1946678,20.5760005 62.482665,20.624 62.824,20.624 Z M63.752,17.312 C63.7626667,17.0879989 63.7466669,16.8746677 63.704,16.672 C63.6613331,16.4693323 63.5920005,16.2906674 63.496,16.136 C63.3999995,15.9813326 63.2666675,15.8586671 63.096,15.768 C62.9253325,15.6773329 62.7173346,15.632 62.472,15.632 C61.9919976,15.632 61.6400011,15.7839985 61.416,16.088 C61.1919989,16.3920015 61.0533336,16.7999974 61,17.312 L63.752,17.312 Z M71.592,22 L71.592,16.032 C71.4639994,16.0106666 71.3573338,15.9946667 71.272,15.984 C71.1866662,15.9733333 71.1093337,15.9626667 71.04,15.952 C70.9706663,15.9413333 70.898667,15.936 70.824,15.936 L70.28,15.936 C70.205333,15.936 70.130667,15.9413333 70.056,15.952 C69.981333,15.9626667 69.8986671,15.9733333 69.808,15.984 C69.7173329,15.9946667 69.6080006,16.0106666 69.48,16.032 L69.48,18.784 C69.48,19.3386694 69.4400004,19.8053314 69.36,20.184 C69.2799996,20.5626686 69.1546675,20.8799987 68.984,21.136 C68.8133325,21.3920013 68.5866681,21.5999992 68.304,21.76 C68.0213319,21.9200008 67.6826686,22.0533328 67.288,22.16 L66.728,20.992 C66.9306677,20.8533326 67.0799995,20.7040008 67.176,20.544 C67.2720005,20.3839992 67.3466664,20.2293341 67.4,20.08 C67.4320002,20.005333 67.4559999,19.9226671 67.472,19.832 C67.4880001,19.7413329 67.4986666,19.6373339 67.504,19.52 C67.5093334,19.4026661 67.5146666,19.2560009 67.52,19.08 C67.5253334,18.9039991 67.528,18.6880013 67.528,18.432 L67.528,14.672 C68.0826694,14.5119992 68.5866644,14.394667 69.04,14.32 C69.4933356,14.245333 69.9973306,14.208 70.552,14.208 C71.1066694,14.208 71.613331,14.245333 72.072,14.32 C72.530669,14.394667 73.0373306,14.5119992 73.592,14.672 L73.592,22 L71.592,22 Z M79.032,20.624 C79.373335,20.624 79.7173316,20.6026669 80.064,20.56 C80.4106684,20.5173331 80.7653315,20.458667 81.128,20.384 L81.448,21.888 C80.573329,22.1013344 79.7146709,22.208 78.872,22.208 C78.2853304,22.208 77.7840021,22.1386674 77.368,22 C76.9519979,21.8613326 76.6053347,21.6800011 76.328,21.456 C76.0506653,21.2319989 75.8320008,20.9813347 75.672,20.704 C75.5119992,20.4266653 75.3893338,20.1466681 75.304,19.864 C75.2186662,19.5813319 75.1653334,19.3120013 75.144,19.056 C75.1226666,18.7999987 75.112,18.5866675 75.112,18.416 C75.112,17.8186637 75.1946658,17.2640026 75.36,16.752 C75.5253342,16.2399974 75.7679984,15.7973352 76.088,15.424 C76.4080016,15.0506648 76.797331,14.7573344 77.256,14.544 C77.714669,14.3306656 78.2319971,14.224 78.808,14.224 C79.3733362,14.224 79.855998,14.3146658 80.256,14.496 C80.656002,14.6773342 80.9813321,14.930665 81.232,15.256 C81.4826679,15.581335 81.6666661,15.9706644 81.784,16.424 C81.9013339,16.8773356 81.96,17.3759973 81.96,17.92 L81.96,18.72 L77.208,18.72 C77.208,18.9973347 77.237333,19.2533322 77.296,19.488 C77.354667,19.7226678 77.4559993,19.9226658 77.6,20.088 C77.7440007,20.2533342 77.9333322,20.3839995 78.168,20.48 C78.4026678,20.5760005 78.690665,20.624 79.032,20.624 Z M79.96,17.312 C79.9706667,17.0879989 79.9546669,16.8746677 79.912,16.672 C79.8693331,16.4693323 79.8000005,16.2906674 79.704,16.136 C79.6079995,15.9813326 79.4746675,15.8586671 79.304,15.768 C79.1333325,15.6773329 78.9253346,15.632 78.68,15.632 C78.1999976,15.632 77.8480011,15.7839985 77.624,16.088 C77.3999989,16.3920015 77.2613336,16.7999974 77.208,17.312 L79.96,17.312 Z M87.816,22 L87.816,18.896 L85.544,18.896 L85.544,22 L83.56,22 L83.56,14.4 L85.544,14.4 L85.544,17.28 L87.816,17.28 L87.816,14.4 L89.816,14.4 L89.816,22 L87.816,22 Z M94.008,22 L91.848,22 L91.848,14.4 L93.816,14.4 L93.8,17.776 C93.8,17.8826672 93.7973334,18.0159992 93.792,18.176 C93.7866666,18.3360008 93.7786667,18.5013325 93.768,18.672 C93.7573333,18.8426675 93.7493334,19.0079992 93.744,19.168 C93.7386666,19.3280008 93.7306667,19.4559995 93.72,19.552 L93.784,19.552 C93.9973344,19.1039978 94.1813326,18.6986685 94.336,18.336 C94.4906674,17.9733315 94.6373326,17.6640013 94.776,17.408 L96.2,14.4 L98.36,14.4 L98.36,22 L96.392,22 L96.392,18.608 C96.392,18.4693326 96.3946666,18.2880011 96.4,18.064 C96.4053334,17.8399989 96.4239998,17.4773358 96.456,16.976 L96.392,16.976 C96.125332,17.5200027 95.9226674,17.962665 95.784,18.304 C95.6453326,18.645335 95.5280005,18.9066658 95.432,19.088 L94.008,22 Z M103.752,20.624 C104.093335,20.624 104.437332,20.6026669 104.784,20.56 C105.130668,20.5173331 105.485332,20.458667 105.848,20.384 L106.168,21.888 C105.293329,22.1013344 104.434671,22.208 103.592,22.208 C103.00533,22.208 102.504002,22.1386674 102.088,22 C101.671998,21.8613326 101.325335,21.6800011 101.048,21.456 C100.770665,21.2319989 100.552001,20.9813347 100.392,20.704 C100.231999,20.4266653 100.109334,20.1466681 100.024,19.864 C99.9386662,19.5813319 99.8853334,19.3120013 99.864,19.056 C99.8426666,18.7999987 99.832,18.5866675 99.832,18.416 C99.832,17.8186637 99.9146658,17.2640026 100.08,16.752 C100.245334,16.2399974 100.487998,15.7973352 100.808,15.424 C101.128002,15.0506648 101.517331,14.7573344 101.976,14.544 C102.434669,14.3306656 102.951997,14.224 103.528,14.224 C104.093336,14.224 104.575998,14.3146658 104.976,14.496 C105.376002,14.6773342 105.701332,14.930665 105.952,15.256 C106.202668,15.581335 106.386666,15.9706644 106.504,16.424 C106.621334,16.8773356 106.68,17.3759973 106.68,17.92 L106.68,18.72 L101.928,18.72 C101.928,18.9973347 101.957333,19.2533322 102.016,19.488 C102.074667,19.7226678 102.175999,19.9226658 102.32,20.088 C102.464001,20.2533342 102.653332,20.3839995 102.888,20.48 C103.122668,20.5760005 103.410665,20.624 103.752,20.624 Z M104.68,17.312 C104.690667,17.0879989 104.674667,16.8746677 104.632,16.672 C104.589333,16.4693323 104.52,16.2906674 104.424,16.136 C104.328,15.9813326 104.194668,15.8586671 104.024,15.768 C103.853332,15.6773329 103.645335,15.632 103.4,15.632 C102.919998,15.632 102.568001,15.7839985 102.344,16.088 C102.119999,16.3920015 101.981334,16.7999974 101.928,17.312 L104.68,17.312 Z M113.816,16.16 C114.040001,15.7439979 114.362665,15.4053346 114.784,15.144 C115.205335,14.8826654 115.671997,14.752 116.184,14.752 C117.133338,14.752 117.890664,15.0613302 118.456,15.68 C119.021336,16.2986698 119.304,17.2053274 119.304,18.4 C119.304,19.0613366 119.208001,19.6346642 119.016,20.12 C118.823999,20.6053358 118.565335,21.0053318 118.24,21.32 C117.914665,21.6346682 117.544002,21.8693326 117.128,22.024 C116.711998,22.1786674 116.280002,22.256 115.832,22.256 C115.650666,22.256 115.429335,22.2373335 115.168,22.2 C114.906665,22.1626665 114.634668,22.0826673 114.352,21.96 C114.069332,21.8373327 113.792001,21.6586678 113.52,21.424 C113.247999,21.1893322 113.010668,20.8693354 112.808,20.464 C112.594666,20.0586646 112.453334,19.5920026 112.384,19.064 C112.314666,18.5359974 112.28,18.0266691 112.28,17.536 C112.28,16.9599971 112.304,16.4480022 112.352,16 C112.4,15.5519978 112.503999,15.1093355 112.664,14.672 C112.845334,14.1919976 113.141331,13.7200023 113.552,13.256 C113.962669,12.7919977 114.47733,12.426668 115.096,12.16 L118.568,10.704 L119.272,12.32 L115.608,13.792 C115.501333,13.8346669 115.349334,13.9039995 115.152,14 C114.954666,14.0960005 114.757334,14.2293325 114.56,14.4 C114.362666,14.5706675 114.186667,14.7786654 114.032,15.024 C113.877333,15.2693346 113.789333,15.5679982 113.768,15.92 L113.752,16.16 L113.816,16.16 Z M115.832,20.736 C116.141335,20.736 116.383999,20.6586674 116.56,20.504 C116.736001,20.3493326 116.866666,20.1573345 116.952,19.928 C117.037334,19.6986655 117.090667,19.4480014 117.112,19.176 C117.133333,18.9039986 117.144,18.6453346 117.144,18.4 C117.144,18.1653322 117.133333,17.9226679 117.112,17.672 C117.090667,17.4213321 117.037334,17.192001 116.952,16.984 C116.866666,16.775999 116.736001,16.605334 116.56,16.472 C116.383999,16.338666 116.141335,16.272 115.832,16.272 C115.522665,16.272 115.280001,16.338666 115.104,16.472 C114.927999,16.605334 114.797334,16.775999 114.712,16.984 C114.626666,17.192001 114.573333,17.4213321 114.552,17.672 C114.530667,17.9226679 114.52,18.1653322 114.52,18.4 C114.52,18.6453346 114.530667,18.9039986 114.552,19.176 C114.573333,19.4480014 114.626666,19.6986655 114.712,19.928 C114.797334,20.1573345 114.927999,20.3493326 115.104,20.504 C115.280001,20.6586674 115.522665,20.736 115.832,20.736 Z M126.008,22.16 C125.922666,22.1386666 125.800001,22.0640006 125.64,21.936 C125.479999,21.8079994 125.352,21.6693341 125.256,21.52 C125.085332,21.6373339 124.957334,21.7173331 124.872,21.76 C124.786666,21.8026669 124.680001,21.8506664 124.552,21.904 C124.338666,21.9893338 124.104001,22.0559998 123.848,22.104 C123.591999,22.1520002 123.336001,22.176 123.08,22.176 C122.738665,22.176 122.416002,22.1253338 122.112,22.024 C121.807998,21.9226662 121.544001,21.7733343 121.32,21.576 C121.095999,21.3786657 120.917334,21.1333348 120.784,20.84 C120.650666,20.5466652 120.584,20.2133352 120.584,19.84 C120.584,19.039996 120.842664,18.4080023 121.36,17.944 C121.877336,17.4799977 122.637328,17.248 123.64,17.248 C123.832001,17.248 124.010666,17.2613332 124.176,17.288 C124.341334,17.3146668 124.498666,17.3493331 124.648,17.392 L124.648,17.024 C124.648,16.7786654 124.634667,16.5786674 124.608,16.424 C124.581333,16.2693326 124.517334,16.1493338 124.416,16.064 C124.314666,15.9786662 124.165334,15.9200002 123.968,15.888 C123.770666,15.8559998 123.506668,15.84 123.176,15.84 C122.962666,15.84 122.717335,15.8533332 122.44,15.88 C122.162665,15.9066668 121.885335,15.9413331 121.608,15.984 L121.304,14.512 C122.114671,14.3093323 122.973329,14.208 123.88,14.208 C124.509336,14.208 125.002665,14.274666 125.36,14.408 C125.717335,14.541334 125.997332,14.7466653 126.2,15.024 C126.274667,15.1200005 126.338666,15.2239994 126.392,15.336 C126.445334,15.4480006 126.488,15.5759993 126.52,15.72 C126.552,15.8640007 126.576,16.0346657 126.592,16.232 C126.608,16.4293343 126.616,16.6666653 126.616,16.944 L126.616,18.992 C126.616,19.2480013 126.626667,19.471999 126.648,19.664 C126.669333,19.856001 126.704,20.0373325 126.752,20.208 C126.8,20.3786675 126.869333,20.5466658 126.96,20.712 C127.050667,20.8773342 127.159999,21.0613323 127.288,21.264 L126.008,22.16 Z M124.744,20.4 C124.701333,20.2719994 124.674667,20.1093343 124.664,19.912 C124.653333,19.7146657 124.648,19.4666682 124.648,19.168 L124.648,18.624 C124.594666,18.6026666 124.512001,18.5840001 124.4,18.568 C124.287999,18.5519999 124.173334,18.544 124.056,18.544 C123.554664,18.544 123.178668,18.6186659 122.928,18.768 C122.677332,18.9173341 122.552,19.1839981 122.552,19.568 C122.552,19.9413352 122.647999,20.2026659 122.84,20.352 C123.032001,20.5013341 123.309332,20.576 123.672,20.576 C123.853334,20.576 124.023999,20.5680001 124.184,20.552 C124.344001,20.5359999 124.530666,20.4853338 124.744,20.4 Z M132.984,22 L132.984,18.896 L130.712,18.896 L130.712,22 L128.728,22 L128.728,14.4 L130.712,14.4 L130.712,17.28 L132.984,17.28 L132.984,14.4 L134.984,14.4 L134.984,22 L132.984,22 Z M141.336,22 L140.888,20.936 C140.759999,20.6319985 140.653334,20.384001 140.568,20.192 C140.461333,19.9679989 140.376,19.7813341 140.312,19.632 C140.248,19.4719992 140.186667,19.3440005 140.128,19.248 C140.069333,19.1519995 140.005334,19.0773336 139.936,19.024 C139.866666,18.9706664 139.784,18.9360001 139.688,18.92 C139.592,18.9039999 139.474667,18.896 139.336,18.896 L139.064,18.896 L139.064,22 L137.064,22 L137.064,14.4 L139.064,14.4 L139.064,17.264 L139.4,17.264 C139.656001,17.264 139.829333,17.2186671 139.92,17.128 C140.010667,17.0373329 140.104,16.8906677 140.2,16.688 C140.296,16.495999 140.384,16.3146675 140.464,16.144 C140.544,15.9733325 140.632,15.792001 140.728,15.6 C140.813334,15.4186658 140.896,15.2560007 140.976,15.112 C141.056,14.9679993 141.149333,14.8426672 141.256,14.736 C141.394667,14.5973326 141.538666,14.490667 141.688,14.416 C141.837334,14.341333 142.050665,14.2933334 142.328,14.272 C142.488001,14.2613333 142.647999,14.2586666 142.808,14.264 C142.968001,14.2693334 143.122666,14.2826666 143.272,14.304 L143.16,15.68 C143.085333,15.6586666 143.021334,15.6533333 142.968,15.664 C142.914666,15.6746667 142.866667,15.6906666 142.824,15.712 C142.781333,15.7333334 142.738667,15.7599998 142.696,15.792 C142.6,15.8773338 142.512,15.986666 142.432,16.12 C142.352,16.253334 142.226668,16.5013315 142.056,16.864 C141.874666,17.2480019 141.701334,17.5146659 141.536,17.664 C141.370666,17.8133341 141.181334,17.9093331 140.968,17.952 L140.968,18 C141.277335,18.074667 141.514666,18.207999 141.68,18.4 C141.845334,18.592001 142.002666,18.8426651 142.152,19.152 C142.216,19.2800006 142.306666,19.4666654 142.424,19.712 C142.530667,19.9253344 142.669332,20.2159982 142.84,20.584 C143.010668,20.9520018 143.234665,21.4239971 143.512,22 L141.336,22 Z M150.072,22.16 C149.986666,22.1386666 149.864001,22.0640006 149.704,21.936 C149.543999,21.8079994 149.416,21.6693341 149.32,21.52 C149.149332,21.6373339 149.021334,21.7173331 148.936,21.76 C148.850666,21.8026669 148.744001,21.8506664 148.616,21.904 C148.402666,21.9893338 148.168001,22.0559998 147.912,22.104 C147.655999,22.1520002 147.400001,22.176 147.144,22.176 C146.802665,22.176 146.480002,22.1253338 146.176,22.024 C145.871998,21.9226662 145.608001,21.7733343 145.384,21.576 C145.159999,21.3786657 144.981334,21.1333348 144.848,20.84 C144.714666,20.5466652 144.648,20.2133352 144.648,19.84 C144.648,19.039996 144.906664,18.4080023 145.424,17.944 C145.941336,17.4799977 146.701328,17.248 147.704,17.248 C147.896001,17.248 148.074666,17.2613332 148.24,17.288 C148.405334,17.3146668 148.562666,17.3493331 148.712,17.392 L148.712,17.024 C148.712,16.7786654 148.698667,16.5786674 148.672,16.424 C148.645333,16.2693326 148.581334,16.1493338 148.48,16.064 C148.378666,15.9786662 148.229334,15.9200002 148.032,15.888 C147.834666,15.8559998 147.570668,15.84 147.24,15.84 C147.026666,15.84 146.781335,15.8533332 146.504,15.88 C146.226665,15.9066668 145.949335,15.9413331 145.672,15.984 L145.368,14.512 C146.178671,14.3093323 147.037329,14.208 147.944,14.208 C148.573336,14.208 149.066665,14.274666 149.424,14.408 C149.781335,14.541334 150.061332,14.7466653 150.264,15.024 C150.338667,15.1200005 150.402666,15.2239994 150.456,15.336 C150.509334,15.4480006 150.552,15.5759993 150.584,15.72 C150.616,15.8640007 150.64,16.0346657 150.656,16.232 C150.672,16.4293343 150.68,16.6666653 150.68,16.944 L150.68,18.992 C150.68,19.2480013 150.690667,19.471999 150.712,19.664 C150.733333,19.856001 150.768,20.0373325 150.816,20.208 C150.864,20.3786675 150.933333,20.5466658 151.024,20.712 C151.114667,20.8773342 151.223999,21.0613323 151.352,21.264 L150.072,22.16 Z M148.808,20.4 C148.765333,20.2719994 148.738667,20.1093343 148.728,19.912 C148.717333,19.7146657 148.712,19.4666682 148.712,19.168 L148.712,18.624 C148.658666,18.6026666 148.576001,18.5840001 148.464,18.568 C148.351999,18.5519999 148.237334,18.544 148.12,18.544 C147.618664,18.544 147.242668,18.6186659 146.992,18.768 C146.741332,18.9173341 146.616,19.1839981 146.616,19.568 C146.616,19.9413352 146.711999,20.2026659 146.904,20.352 C147.096001,20.5013341 147.373332,20.576 147.736,20.576 C147.917334,20.576 148.087999,20.5680001 148.248,20.552 C148.408001,20.5359999 148.594666,20.4853338 148.808,20.4 Z" id="Отделение-банка"></path>
            </g>
        </g>
    </g>
</svg>