<?xml version="1.0" encoding="UTF-8"?>
<svg width="118px" height="35px" viewBox="0 0 118 35" version="1.1" xmlns="http://www.w3.org/2000/svg" xmlns:xlink="http://www.w3.org/1999/xlink">
    <!-- Generator: Sketch 49.1 (51147) - http://www.bohemiancoding.com/sketch -->
    <title>Page 1 Copy</title>
    <desc>Created with Sketch.</desc>
    <defs></defs>
    <g id="Ввод-и-вывод-средств" stroke="none" stroke-width="1" fill="none" fill-rule="evenodd">
        <g id="AF-deposit--Copy" transform="translate(-192.000000, -662.000000)" fill="#E30000">
            <g id="Page-1-Copy" transform="translate(192.000000, 662.000000)">
                <path d="M11.218558,5.63757391 L8.159398,14.8527913 L14.326338,14.8527913 L11.256778,5.63757391 L11.218558,5.63757391 Z M0.497458,30.1749652 C0.307658,30.1749652 0.154518,30.3325304 0.154518,30.5274 L0.154518,34.4459217 C0.154518,34.641313 0.307658,34.7980957 0.497458,34.7980957 L21.976318,34.7980957 C22.164558,34.7980957 22.316398,34.641313 22.316398,34.4459217 L22.316398,30.5274 C22.316398,30.3325304 22.164558,30.1749652 21.976318,30.1749652 L0.497458,30.1749652 Z M11.236758,0.159313043 C13.587418,0.159313043 14.326338,1.84844348 14.943838,3.53966087 C15.205918,4.25470435 21.311498,21.0301826 21.494018,21.5334 C21.545238,21.6721826 21.511438,21.9040957 21.295898,21.9867913 C21.079578,22.0692261 17.906538,23.307313 17.731558,23.373313 C17.556058,23.4395739 17.358458,23.3417478 17.293978,23.1667043 C17.228978,22.9927043 15.914158,19.3360957 15.765438,18.9265304 L6.719258,18.9265304 C6.570538,19.3360957 5.241938,22.9992261 5.180578,23.1667043 C5.119738,23.3341826 4.929678,23.4471391 4.744298,23.373313 C4.558138,23.2989652 1.371058,22.0600957 1.182818,21.9867913 C1.000298,21.9171391 0.916578,21.7092261 0.981318,21.5334 C1.205958,20.9036609 7.218198,4.39818261 7.526298,3.53966087 C8.120918,1.87557391 8.887138,0.159313043 11.236758,0.159313043 Z" id="Fill-1"></path>
                <path d="M40.424,22 C40.349333,21.7653322 40.2773337,21.5253346 40.208,21.28 C40.1386663,21.0346654 40.0720003,20.8106677 40.008,20.608 C39.933333,20.3733322 39.8640003,20.1440011 39.8,19.92 L35.992,19.92 C35.9279997,20.1440011 35.858667,20.3733322 35.784,20.608 C35.7199997,20.8106677 35.6480004,21.0346654 35.568,21.28 C35.4879996,21.5253346 35.410667,21.7653322 35.336,22 L33.128,22 L36.808,11.376 C37.0213344,11.3119997 37.1973326,11.2640002 37.336,11.232 C37.4746674,11.1999998 37.677332,11.184 37.944,11.184 C38.4346691,11.184 38.8666648,11.2479994 39.24,11.376 L42.712,22 L40.424,22 Z M39.272,18.128 C39.1226659,17.5839973 39.0026671,17.1520016 38.912,16.832 C38.8213329,16.5119984 38.7493336,16.2613342 38.696,16.08 C38.6426664,15.8773323 38.6000002,15.738667 38.568,15.664 C38.5146664,15.5039992 38.4613336,15.3120011 38.408,15.088 C38.3546664,14.9066658 38.290667,14.6773347 38.216,14.4 C38.141333,14.1226653 38.0613338,13.8080018 37.976,13.456 L37.912,13.456 C37.8159995,13.797335 37.7280004,14.1039986 37.648,14.376 C37.5679996,14.6480014 37.5013336,14.879999 37.448,15.072 C37.3839997,15.2960011 37.3253336,15.4933325 37.272,15.664 C37.2399998,15.7493338 37.1973336,15.8933323 37.144,16.096 C37.0906664,16.2773342 37.0186671,16.5279984 36.928,16.848 C36.8373329,17.1680016 36.7120008,17.594664 36.552,18.128 L39.272,18.128 Z M48.12,22 L48.12,16.032 C47.9919994,16.0106666 47.8853338,15.9946667 47.8,15.984 C47.7146662,15.9733333 47.6373337,15.9626667 47.568,15.952 C47.4986663,15.9413333 47.426667,15.936 47.352,15.936 L46.808,15.936 C46.733333,15.936 46.658667,15.9413333 46.584,15.952 C46.509333,15.9626667 46.4266671,15.9733333 46.336,15.984 C46.2453329,15.9946667 46.1360006,16.0106666 46.008,16.032 L46.008,18.784 C46.008,19.3386694 45.9680004,19.8053314 45.888,20.184 C45.8079996,20.5626686 45.6826675,20.8799987 45.512,21.136 C45.3413325,21.3920013 45.1146681,21.5999992 44.832,21.76 C44.5493319,21.9200008 44.2106686,22.0533328 43.816,22.16 L43.256,20.992 C43.4586677,20.8533326 43.6079995,20.7040008 43.704,20.544 C43.8000005,20.3839992 43.8746664,20.2293341 43.928,20.08 C43.9600002,20.005333 43.9839999,19.9226671 44,19.832 C44.0160001,19.7413329 44.0266666,19.6373339 44.032,19.52 C44.0373334,19.4026661 44.0426666,19.2560009 44.048,19.08 C44.0533334,18.9039991 44.056,18.6880013 44.056,18.432 L44.056,14.672 C44.6106694,14.5119992 45.1146644,14.394667 45.568,14.32 C46.0213356,14.245333 46.5253306,14.208 47.08,14.208 C47.6346694,14.208 48.141331,14.245333 48.6,14.32 C49.058669,14.394667 49.5653306,14.5119992 50.12,14.672 L50.12,22 L48.12,22 Z M56.296,19.376 C56.296,19.0133315 56.2080009,18.728001 56.032,18.52 C55.8559991,18.311999 55.538669,18.208 55.08,18.208 C55.005333,18.208 54.9413336,18.2106666 54.888,18.216 C54.8346664,18.2213334 54.778667,18.2266666 54.72,18.232 C54.661333,18.2373334 54.5920004,18.2479999 54.512,18.264 C54.4319996,18.2800001 54.3280006,18.2986666 54.2,18.32 L54.2,20.512 C54.4133344,20.5653336 54.5733328,20.5999999 54.68,20.616 C54.7866672,20.6320001 54.9199992,20.64 55.08,20.64 C55.5600024,20.64 55.8826658,20.5226678 56.048,20.288 C56.2133342,20.0533322 56.296,19.7493352 56.296,19.376 Z M54.2,14.384 L54.2,16.816 C54.466668,16.7519997 54.6853325,16.7040002 54.856,16.672 C55.0266675,16.6399998 55.2346654,16.624 55.48,16.624 C56.4186714,16.624 57.1359975,16.861331 57.632,17.336 C58.1280025,17.810669 58.376,18.4586626 58.376,19.28 C58.376,20.1866712 58.0986694,20.8959974 57.544,21.408 C56.9893306,21.9200026 56.178672,22.176 55.112,22.176 C54.6426643,22.176 54.1600025,22.1306671 53.664,22.04 C53.1679975,21.9493329 52.6800024,21.8026677 52.2,21.6 L52.2,14.384 L54.2,14.384 Z M64.04,24.496 L64.04,21.76 C63.9119994,21.834667 63.7173346,21.9146662 63.456,22 C63.1946654,22.0853338 62.8506688,22.128 62.424,22.128 C61.5173288,22.128 60.8026693,21.7973366 60.28,21.136 C59.7573307,20.4746634 59.496,19.4986731 59.496,18.208 C59.496,16.8213264 59.7866638,15.8080032 60.368,15.168 C60.9493362,14.5279968 61.7466616,14.208 62.76,14.208 C63.0160013,14.208 63.239999,14.2213332 63.432,14.248 C63.624001,14.2746668 63.8266656,14.3413328 64.04,14.448 L64.04,11.2 L66.024,11.2 L66.024,14.448 C66.2373344,14.3413328 66.439999,14.2746668 66.632,14.248 C66.824001,14.2213332 67.0479987,14.208 67.304,14.208 C68.3173384,14.208 69.1146638,14.5199969 69.696,15.144 C70.2773362,15.7680031 70.568,16.7733264 70.568,18.16 C70.568,18.8000032 70.4960007,19.3679975 70.352,19.864 C70.2079993,20.3600025 70.0053346,20.7759983 69.744,21.112 C69.4826654,21.4480017 69.1733351,21.7013325 68.816,21.872 C68.4586649,22.0426675 68.0666688,22.128 67.64,22.128 C67.2133312,22.128 66.8693346,22.0853338 66.608,22 C66.3466654,21.9146662 66.1520006,21.834667 66.024,21.76 L66.024,24.496 L64.04,24.496 Z M68.52,18.16 C68.52,16.634659 68.0613379,15.872 67.144,15.872 C66.951999,15.872 66.7786674,15.8799999 66.624,15.896 C66.4693326,15.9120001 66.2693346,15.9786661 66.024,16.096 L66.024,20.288 C66.2373344,20.362667 66.4133326,20.4079999 66.552,20.424 C66.6906674,20.4400001 66.855999,20.448 67.048,20.448 C67.506669,20.448 67.8666654,20.2426687 68.128,19.832 C68.3893346,19.4213313 68.52,18.8640035 68.52,18.16 Z M61.544,18.208 C61.544,18.9120035 61.6586655,19.4613314 61.888,19.856 C62.1173345,20.2506686 62.4933307,20.448 63.016,20.448 C63.208001,20.448 63.3733326,20.4400001 63.512,20.424 C63.6506674,20.4079999 63.8266656,20.362667 64.04,20.288 L64.04,16.096 C63.7946654,15.9786661 63.5946674,15.9120001 63.44,15.896 C63.2853326,15.8799999 63.112001,15.872 62.92,15.872 C62.461331,15.872 62.1173345,16.0693314 61.888,16.464 C61.6586655,16.8586686 61.544,17.4399962 61.544,18.208 Z M77.352,22.16 C77.2666662,22.1386666 77.1440008,22.0640006 76.984,21.936 C76.8239992,21.8079994 76.6960005,21.6693341 76.6,21.52 C76.4293325,21.6373339 76.3013338,21.7173331 76.216,21.76 C76.1306662,21.8026669 76.0240006,21.8506664 75.896,21.904 C75.6826656,21.9893338 75.4480013,22.0559998 75.192,22.104 C74.9359987,22.1520002 74.6800013,22.176 74.424,22.176 C74.082665,22.176 73.7600015,22.1253338 73.456,22.024 C73.1519985,21.9226662 72.8880011,21.7733343 72.664,21.576 C72.4399989,21.3786657 72.261334,21.1333348 72.128,20.84 C71.994666,20.5466652 71.928,20.2133352 71.928,19.84 C71.928,19.039996 72.1866641,18.4080023 72.704,17.944 C73.2213359,17.4799977 73.9813283,17.248 74.984,17.248 C75.176001,17.248 75.3546658,17.2613332 75.52,17.288 C75.6853342,17.3146668 75.8426659,17.3493331 75.992,17.392 L75.992,17.024 C75.992,16.7786654 75.9786668,16.5786674 75.952,16.424 C75.9253332,16.2693326 75.8613338,16.1493338 75.76,16.064 C75.6586662,15.9786662 75.5093343,15.9200002 75.312,15.888 C75.1146657,15.8559998 74.8506683,15.84 74.52,15.84 C74.3066656,15.84 74.0613347,15.8533332 73.784,15.88 C73.5066653,15.9066668 73.2293347,15.9413331 72.952,15.984 L72.648,14.512 C73.4586707,14.3093323 74.3173288,14.208 75.224,14.208 C75.8533365,14.208 76.3466649,14.274666 76.704,14.408 C77.0613351,14.541334 77.3413323,14.7466653 77.544,15.024 C77.618667,15.1200005 77.6826664,15.2239994 77.736,15.336 C77.7893336,15.4480006 77.8319998,15.5759993 77.864,15.72 C77.8960002,15.8640007 77.9199999,16.0346657 77.936,16.232 C77.9520001,16.4293343 77.96,16.6666653 77.96,16.944 L77.96,18.992 C77.96,19.2480013 77.9706666,19.471999 77.992,19.664 C78.0133334,19.856001 78.0479998,20.0373325 78.096,20.208 C78.1440002,20.3786675 78.2133329,20.5466658 78.304,20.712 C78.3946671,20.8773342 78.5039994,21.0613323 78.632,21.264 L77.352,22.16 Z M76.088,20.4 C76.0453331,20.2719994 76.0186667,20.1093343 76.008,19.912 C75.9973333,19.7146657 75.992,19.4666682 75.992,19.168 L75.992,18.624 C75.9386664,18.6026666 75.8560006,18.5840001 75.744,18.568 C75.6319994,18.5519999 75.5173339,18.544 75.4,18.544 C74.8986642,18.544 74.5226679,18.6186659 74.272,18.768 C74.0213321,18.9173341 73.896,19.1839981 73.896,19.568 C73.896,19.9413352 73.991999,20.2026659 74.184,20.352 C74.376001,20.5013341 74.6533315,20.576 75.016,20.576 C75.1973342,20.576 75.3679992,20.5680001 75.528,20.552 C75.6880008,20.5359999 75.8746656,20.4853338 76.088,20.4 Z M82.536,18.192 C82.536,18.5440018 82.4106679,18.8453321 82.16,19.096 C81.9093321,19.3466679 81.6080018,19.472 81.256,19.472 C80.9039982,19.472 80.6053346,19.3466679 80.36,19.096 C80.1146654,18.8453321 79.992,18.5440018 79.992,18.192 C79.992,17.8399982 80.1146654,17.5413346 80.36,17.296 C80.6053346,17.0506654 80.9039982,16.928 81.256,16.928 C81.6080018,16.928 81.9093321,17.0506654 82.16,17.296 C82.4106679,17.5413346 82.536,17.8399982 82.536,18.192 Z M92.712,22 L90.264,22 L88.76,18.432 C88.6319994,18.1333318 88.4533345,17.880001 88.224,17.672 C87.9946655,17.463999 87.6933352,17.36 87.32,17.36 L86.872,17.36 L86.872,22 L84.696,22 L84.696,11.2 L86.872,11.2 L86.872,15.584 L87.32,15.584 C87.6293349,15.584 87.8773324,15.4906676 88.064,15.304 C88.2506676,15.1173324 88.4346658,14.8266686 88.616,14.432 L89.56,12.4 C89.6453338,12.207999 89.7413328,12.0293342 89.848,11.864 C89.9546672,11.6986658 90.0799993,11.5573339 90.224,11.44 C90.3680007,11.3226661 90.5413323,11.2293337 90.744,11.16 C90.9466677,11.0906663 91.1919986,11.056 91.48,11.056 C91.6293341,11.056 91.7839992,11.0639999 91.944,11.08 C92.1040008,11.0960001 92.2639992,11.1146666 92.424,11.136 L92.312,12.528 C92.2266662,12.5066666 92.1626669,12.496 92.12,12.496 C91.927999,12.496 91.7786672,12.5599994 91.672,12.688 C91.5653328,12.8160006 91.4693338,12.9706658 91.384,13.152 L90.744,14.528 C90.6373328,14.7626678 90.5280006,14.975999 90.416,15.168 C90.3039994,15.360001 90.1706674,15.5333326 90.016,15.688 C89.8613326,15.8426674 89.6720011,15.9786661 89.448,16.096 C89.2239989,16.2133339 88.941335,16.3039997 88.6,16.368 C88.8986682,16.4213336 89.151999,16.485333 89.36,16.56 C89.568001,16.634667 89.7439993,16.7306661 89.888,16.848 C90.0320007,16.9653339 90.1599994,17.1066658 90.272,17.272 C90.3840006,17.4373342 90.4986661,17.6319989 90.616,17.856 L92.712,22 Z M98.312,22 L98.312,16.032 C98.1839994,16.0106666 98.0773338,15.9946667 97.992,15.984 C97.9066662,15.9733333 97.8293337,15.9626667 97.76,15.952 C97.6906663,15.9413333 97.618667,15.936 97.544,15.936 L97,15.936 C96.925333,15.936 96.850667,15.9413333 96.776,15.952 C96.701333,15.9626667 96.6186671,15.9733333 96.528,15.984 C96.4373329,15.9946667 96.3280006,16.0106666 96.2,16.032 L96.2,18.784 C96.2,19.3386694 96.1600004,19.8053314 96.08,20.184 C95.9999996,20.5626686 95.8746675,20.8799987 95.704,21.136 C95.5333325,21.3920013 95.3066681,21.5999992 95.024,21.76 C94.7413319,21.9200008 94.4026686,22.0533328 94.008,22.16 L93.448,20.992 C93.6506677,20.8533326 93.7999995,20.7040008 93.896,20.544 C93.9920005,20.3839992 94.0666664,20.2293341 94.12,20.08 C94.1520002,20.005333 94.1759999,19.9226671 94.192,19.832 C94.2080001,19.7413329 94.2186666,19.6373339 94.224,19.52 C94.2293334,19.4026661 94.2346666,19.2560009 94.24,19.08 C94.2453334,18.9039991 94.248,18.6880013 94.248,18.432 L94.248,14.672 C94.8026694,14.5119992 95.3066644,14.394667 95.76,14.32 C96.2133356,14.245333 96.7173306,14.208 97.272,14.208 C97.8266694,14.208 98.333331,14.245333 98.792,14.32 C99.250669,14.394667 99.7573306,14.5119992 100.312,14.672 L100.312,22 L98.312,22 Z M104.504,22 L102.344,22 L102.344,14.4 L104.312,14.4 L104.296,17.776 C104.296,17.8826672 104.293333,18.0159992 104.288,18.176 C104.282667,18.3360008 104.274667,18.5013325 104.264,18.672 C104.253333,18.8426675 104.245333,19.0079992 104.24,19.168 C104.234667,19.3280008 104.226667,19.4559995 104.216,19.552 L104.28,19.552 C104.493334,19.1039978 104.677333,18.6986685 104.832,18.336 C104.986667,17.9733315 105.133333,17.6640013 105.272,17.408 L106.696,14.4 L108.856,14.4 L108.856,22 L106.888,22 L106.888,18.608 C106.888,18.4693326 106.890667,18.2880011 106.896,18.064 C106.901333,17.8399989 106.92,17.4773358 106.952,16.976 L106.888,16.976 C106.621332,17.5200027 106.418667,17.962665 106.28,18.304 C106.141333,18.645335 106.024,18.9066658 105.928,19.088 L104.504,22 Z M115.16,22 L114.712,20.936 C114.583999,20.6319985 114.477334,20.384001 114.392,20.192 C114.285333,19.9679989 114.2,19.7813341 114.136,19.632 C114.072,19.4719992 114.010667,19.3440005 113.952,19.248 C113.893333,19.1519995 113.829334,19.0773336 113.76,19.024 C113.690666,18.9706664 113.608,18.9360001 113.512,18.92 C113.416,18.9039999 113.298667,18.896 113.16,18.896 L112.888,18.896 L112.888,22 L110.888,22 L110.888,14.4 L112.888,14.4 L112.888,17.264 L113.224,17.264 C113.480001,17.264 113.653333,17.2186671 113.744,17.128 C113.834667,17.0373329 113.928,16.8906677 114.024,16.688 C114.12,16.495999 114.208,16.3146675 114.288,16.144 C114.368,15.9733325 114.456,15.792001 114.552,15.6 C114.637334,15.4186658 114.72,15.2560007 114.8,15.112 C114.88,14.9679993 114.973333,14.8426672 115.08,14.736 C115.218667,14.5973326 115.362666,14.490667 115.512,14.416 C115.661334,14.341333 115.874665,14.2933334 116.152,14.272 C116.312001,14.2613333 116.471999,14.2586666 116.632,14.264 C116.792001,14.2693334 116.946666,14.2826666 117.096,14.304 L116.984,15.68 C116.909333,15.6586666 116.845334,15.6533333 116.792,15.664 C116.738666,15.6746667 116.690667,15.6906666 116.648,15.712 C116.605333,15.7333334 116.562667,15.7599998 116.52,15.792 C116.424,15.8773338 116.336,15.986666 116.256,16.12 C116.176,16.253334 116.050668,16.5013315 115.88,16.864 C115.698666,17.2480019 115.525334,17.5146659 115.36,17.664 C115.194666,17.8133341 115.005334,17.9093331 114.792,17.952 L114.792,18 C115.101335,18.074667 115.338666,18.207999 115.504,18.4 C115.669334,18.592001 115.826666,18.8426651 115.976,19.152 C116.04,19.2800006 116.130666,19.4666654 116.248,19.712 C116.354667,19.9253344 116.493332,20.2159982 116.664,20.584 C116.834668,20.9520018 117.058665,21.4239971 117.336,22 L115.16,22 Z" id="Альфа-Клик"></path>
            </g>
        </g>
    </g>
</svg>