<?xml version="1.0" encoding="UTF-8"?>
<svg width="130px" height="35px" viewBox="0 0 130 35" version="1.1" xmlns="http://www.w3.org/2000/svg" xmlns:xlink="http://www.w3.org/1999/xlink">
    <!-- Generator: Sketch 49.1 (51147) - http://www.bohemiancoding.com/sketch -->
    <title>Page 1 Copy 2</title>
    <desc>Created with Sketch.</desc>
    <defs></defs>
    <g id="Ввод-и-вывод-средств" stroke="none" stroke-width="1" fill="none" fill-rule="evenodd">
        <g id="AF-deposit--Copy" transform="translate(-193.000000, -1486.000000)" fill="#E30000">
            <g id="Page-1-Copy-2" transform="translate(193.000000, 1486.000000)">
                <path d="M11.218558,5.63757391 L8.159398,14.8527913 L14.326338,14.8527913 L11.256778,5.63757391 L11.218558,5.63757391 Z M0.497458,30.1749652 C0.307658,30.1749652 0.154518,30.3325304 0.154518,30.5274 L0.154518,34.4459217 C0.154518,34.641313 0.307658,34.7980957 0.497458,34.7980957 L21.976318,34.7980957 C22.164558,34.7980957 22.316398,34.641313 22.316398,34.4459217 L22.316398,30.5274 C22.316398,30.3325304 22.164558,30.1749652 21.976318,30.1749652 L0.497458,30.1749652 Z M11.236758,0.159313043 C13.587418,0.159313043 14.326338,1.84844348 14.943838,3.53966087 C15.205918,4.25470435 21.311498,21.0301826 21.494018,21.5334 C21.545238,21.6721826 21.511438,21.9040957 21.295898,21.9867913 C21.079578,22.0692261 17.906538,23.307313 17.731558,23.373313 C17.556058,23.4395739 17.358458,23.3417478 17.293978,23.1667043 C17.228978,22.9927043 15.914158,19.3360957 15.765438,18.9265304 L6.719258,18.9265304 C6.570538,19.3360957 5.241938,22.9992261 5.180578,23.1667043 C5.119738,23.3341826 4.929678,23.4471391 4.744298,23.373313 C4.558138,23.2989652 1.371058,22.0600957 1.182818,21.9867913 C1.000298,21.9171391 0.916578,21.7092261 0.981318,21.5334 C1.205958,20.9036609 7.218198,4.39818261 7.526298,3.53966087 C8.120918,1.87557391 8.887138,0.159313043 11.236758,0.159313043 Z" id="Fill-1"></path>
                <path d="M41.256,18.928 C41.256,19.8880048 41.0000026,20.6399973 40.488,21.184 C40.1679984,21.5040016 39.7626691,21.7493325 39.272,21.92 C38.7813309,22.0906675 38.2106699,22.176 37.56,22.176 C37.2719986,22.176 36.9680016,22.1733334 36.648,22.168 C36.3279984,22.1626666 36.0186682,22.1573334 35.72,22.152 C35.4213318,22.1466666 35.138668,22.1386667 34.872,22.128 C34.605332,22.1173333 34.3813342,22.1066667 34.2,22.096 L34.2,11.104 C34.3706675,11.0933333 34.5839987,11.0826667 34.84,11.072 C35.0960013,11.0613333 35.3706652,11.0506667 35.664,11.04 C35.9573348,11.0293333 36.2506652,11.0213334 36.544,11.016 C36.8373348,11.0106666 37.1066654,11.008 37.352,11.008 C37.4373338,11.008 37.5253329,11.0106666 37.616,11.016 C37.7066671,11.0213334 37.7946662,11.024 37.88,11.024 C38.3493357,11.024 38.7653315,11.1039992 39.128,11.264 C39.4906685,11.4240008 39.7973321,11.637332 40.048,11.904 C40.2986679,12.170668 40.490666,12.4853315 40.624,12.848 C40.757334,13.2106685 40.824,13.5893314 40.824,13.984 C40.824,14.5280027 40.6933346,14.9866648 40.432,15.36 C40.1706654,15.7333352 39.7466696,16.0266656 39.16,16.24 C39.8533368,16.3893341 40.3759982,16.7093309 40.728,17.2 C41.0800018,17.6906691 41.256,18.2666634 41.256,18.928 Z M38.776,14.176 C38.776,13.7599979 38.6666678,13.4400011 38.448,13.216 C38.2293322,12.9919989 37.9120021,12.88 37.496,12.88 L36.792,12.88 C36.599999,12.88 36.4026677,12.8853333 36.2,12.896 L36.2,15.488 L37.352,15.488 C37.8000022,15.488 38.157332,15.3653346 38.424,15.12 C38.6586678,14.8959989 38.776,14.5813354 38.776,14.176 Z M39.16,18.64 C39.16,18.2453314 39.0160014,17.9040014 38.728,17.616 C38.4186651,17.3066651 38.0080026,17.152 37.496,17.152 L36.2,17.152 L36.2,20.304 L37.48,20.304 C38.0026693,20.304 38.4133318,20.1680014 38.712,19.896 C39.0106682,19.6239986 39.16,19.2053362 39.16,18.64 Z M53.72,22 C53.645333,21.7653322 53.5733337,21.5253346 53.504,21.28 C53.4346663,21.0346654 53.3680003,20.8106677 53.304,20.608 C53.229333,20.3733322 53.1600003,20.1440011 53.096,19.92 L49.288,19.92 C49.2239997,20.1440011 49.154667,20.3733322 49.08,20.608 C49.0159997,20.8106677 48.9440004,21.0346654 48.864,21.28 C48.7839996,21.5253346 48.706667,21.7653322 48.632,22 L46.424,22 L50.104,11.376 C50.3173344,11.3119997 50.4933326,11.2640002 50.632,11.232 C50.7706674,11.1999998 50.973332,11.184 51.24,11.184 C51.7306691,11.184 52.1626648,11.2479994 52.536,11.376 L56.008,22 L53.72,22 Z M52.568,18.128 C52.4186659,17.5839973 52.2986671,17.1520016 52.208,16.832 C52.1173329,16.5119984 52.0453336,16.2613342 51.992,16.08 C51.9386664,15.8773323 51.8960002,15.738667 51.864,15.664 C51.8106664,15.5039992 51.7573336,15.3120011 51.704,15.088 C51.6506664,14.9066658 51.586667,14.6773347 51.512,14.4 C51.437333,14.1226653 51.3573338,13.8080018 51.272,13.456 L51.208,13.456 C51.1119995,13.797335 51.0240004,14.1039986 50.944,14.376 C50.8639996,14.6480014 50.7973336,14.879999 50.744,15.072 C50.6799997,15.2960011 50.6213336,15.4933325 50.568,15.664 C50.5359998,15.7493338 50.4933336,15.8933323 50.44,16.096 C50.3866664,16.2773342 50.3146671,16.5279984 50.224,16.848 C50.1333329,17.1680016 50.0080008,17.594664 49.848,18.128 L52.568,18.128 Z M61.416,22 L61.416,16.032 C61.2879994,16.0106666 61.1813338,15.9946667 61.096,15.984 C61.0106662,15.9733333 60.9333337,15.9626667 60.864,15.952 C60.7946663,15.9413333 60.722667,15.936 60.648,15.936 L60.104,15.936 C60.029333,15.936 59.954667,15.9413333 59.88,15.952 C59.805333,15.9626667 59.7226671,15.9733333 59.632,15.984 C59.5413329,15.9946667 59.4320006,16.0106666 59.304,16.032 L59.304,18.784 C59.304,19.3386694 59.2640004,19.8053314 59.184,20.184 C59.1039996,20.5626686 58.9786675,20.8799987 58.808,21.136 C58.6373325,21.3920013 58.4106681,21.5999992 58.128,21.76 C57.8453319,21.9200008 57.5066686,22.0533328 57.112,22.16 L56.552,20.992 C56.7546677,20.8533326 56.9039995,20.7040008 57,20.544 C57.0960005,20.3839992 57.1706664,20.2293341 57.224,20.08 C57.2560002,20.005333 57.2799999,19.9226671 57.296,19.832 C57.3120001,19.7413329 57.3226666,19.6373339 57.328,19.52 C57.3333334,19.4026661 57.3386666,19.2560009 57.344,19.08 C57.3493334,18.9039991 57.352,18.6880013 57.352,18.432 L57.352,14.672 C57.9066694,14.5119992 58.4106644,14.394667 58.864,14.32 C59.3173356,14.245333 59.8213306,14.208 60.376,14.208 C60.9306694,14.208 61.437331,14.245333 61.896,14.32 C62.354669,14.394667 62.8613306,14.5119992 63.416,14.672 L63.416,22 L61.416,22 Z M69.592,19.376 C69.592,19.0133315 69.5040009,18.728001 69.328,18.52 C69.1519991,18.311999 68.834669,18.208 68.376,18.208 C68.301333,18.208 68.2373336,18.2106666 68.184,18.216 C68.1306664,18.2213334 68.074667,18.2266666 68.016,18.232 C67.957333,18.2373334 67.8880004,18.2479999 67.808,18.264 C67.7279996,18.2800001 67.6240006,18.2986666 67.496,18.32 L67.496,20.512 C67.7093344,20.5653336 67.8693328,20.5999999 67.976,20.616 C68.0826672,20.6320001 68.2159992,20.64 68.376,20.64 C68.8560024,20.64 69.1786658,20.5226678 69.344,20.288 C69.5093342,20.0533322 69.592,19.7493352 69.592,19.376 Z M67.496,14.384 L67.496,16.816 C67.762668,16.7519997 67.9813325,16.7040002 68.152,16.672 C68.3226675,16.6399998 68.5306654,16.624 68.776,16.624 C69.7146714,16.624 70.4319975,16.861331 70.928,17.336 C71.4240025,17.810669 71.672,18.4586626 71.672,19.28 C71.672,20.1866712 71.3946694,20.8959974 70.84,21.408 C70.2853306,21.9200026 69.474672,22.176 68.408,22.176 C67.9386643,22.176 67.4560025,22.1306671 66.96,22.04 C66.4639975,21.9493329 65.9760024,21.8026677 65.496,21.6 L65.496,14.384 L67.496,14.384 Z M77.336,24.496 L77.336,21.76 C77.2079994,21.834667 77.0133346,21.9146662 76.752,22 C76.4906654,22.0853338 76.1466688,22.128 75.72,22.128 C74.8133288,22.128 74.0986693,21.7973366 73.576,21.136 C73.0533307,20.4746634 72.792,19.4986731 72.792,18.208 C72.792,16.8213264 73.0826638,15.8080032 73.664,15.168 C74.2453362,14.5279968 75.0426616,14.208 76.056,14.208 C76.3120013,14.208 76.535999,14.2213332 76.728,14.248 C76.920001,14.2746668 77.1226656,14.3413328 77.336,14.448 L77.336,11.2 L79.32,11.2 L79.32,14.448 C79.5333344,14.3413328 79.735999,14.2746668 79.928,14.248 C80.120001,14.2213332 80.3439987,14.208 80.6,14.208 C81.6133384,14.208 82.4106638,14.5199969 82.992,15.144 C83.5733362,15.7680031 83.864,16.7733264 83.864,18.16 C83.864,18.8000032 83.7920007,19.3679975 83.648,19.864 C83.5039993,20.3600025 83.3013346,20.7759983 83.04,21.112 C82.7786654,21.4480017 82.4693351,21.7013325 82.112,21.872 C81.7546649,22.0426675 81.3626688,22.128 80.936,22.128 C80.5093312,22.128 80.1653346,22.0853338 79.904,22 C79.6426654,21.9146662 79.4480006,21.834667 79.32,21.76 L79.32,24.496 L77.336,24.496 Z M81.816,18.16 C81.816,16.634659 81.3573379,15.872 80.44,15.872 C80.247999,15.872 80.0746674,15.8799999 79.92,15.896 C79.7653326,15.9120001 79.5653346,15.9786661 79.32,16.096 L79.32,20.288 C79.5333344,20.362667 79.7093326,20.4079999 79.848,20.424 C79.9866674,20.4400001 80.151999,20.448 80.344,20.448 C80.802669,20.448 81.1626654,20.2426687 81.424,19.832 C81.6853346,19.4213313 81.816,18.8640035 81.816,18.16 Z M74.84,18.208 C74.84,18.9120035 74.9546655,19.4613314 75.184,19.856 C75.4133345,20.2506686 75.7893307,20.448 76.312,20.448 C76.504001,20.448 76.6693326,20.4400001 76.808,20.424 C76.9466674,20.4079999 77.1226656,20.362667 77.336,20.288 L77.336,16.096 C77.0906654,15.9786661 76.8906674,15.9120001 76.736,15.896 C76.5813326,15.8799999 76.408001,15.872 76.216,15.872 C75.757331,15.872 75.4133345,16.0693314 75.184,16.464 C74.9546655,16.8586686 74.84,17.4399962 74.84,18.208 Z M90.648,22.16 C90.5626662,22.1386666 90.4400008,22.0640006 90.28,21.936 C90.1199992,21.8079994 89.9920005,21.6693341 89.896,21.52 C89.7253325,21.6373339 89.5973338,21.7173331 89.512,21.76 C89.4266662,21.8026669 89.3200006,21.8506664 89.192,21.904 C88.9786656,21.9893338 88.7440013,22.0559998 88.488,22.104 C88.2319987,22.1520002 87.9760013,22.176 87.72,22.176 C87.378665,22.176 87.0560015,22.1253338 86.752,22.024 C86.4479985,21.9226662 86.1840011,21.7733343 85.96,21.576 C85.7359989,21.3786657 85.557334,21.1333348 85.424,20.84 C85.290666,20.5466652 85.224,20.2133352 85.224,19.84 C85.224,19.039996 85.4826641,18.4080023 86,17.944 C86.5173359,17.4799977 87.2773283,17.248 88.28,17.248 C88.472001,17.248 88.6506658,17.2613332 88.816,17.288 C88.9813342,17.3146668 89.1386659,17.3493331 89.288,17.392 L89.288,17.024 C89.288,16.7786654 89.2746668,16.5786674 89.248,16.424 C89.2213332,16.2693326 89.1573338,16.1493338 89.056,16.064 C88.9546662,15.9786662 88.8053343,15.9200002 88.608,15.888 C88.4106657,15.8559998 88.1466683,15.84 87.816,15.84 C87.6026656,15.84 87.3573347,15.8533332 87.08,15.88 C86.8026653,15.9066668 86.5253347,15.9413331 86.248,15.984 L85.944,14.512 C86.7546707,14.3093323 87.6133288,14.208 88.52,14.208 C89.1493365,14.208 89.6426649,14.274666 90,14.408 C90.3573351,14.541334 90.6373323,14.7466653 90.84,15.024 C90.914667,15.1200005 90.9786664,15.2239994 91.032,15.336 C91.0853336,15.4480006 91.1279998,15.5759993 91.16,15.72 C91.1920002,15.8640007 91.2159999,16.0346657 91.232,16.232 C91.2480001,16.4293343 91.256,16.6666653 91.256,16.944 L91.256,18.992 C91.256,19.2480013 91.2666666,19.471999 91.288,19.664 C91.3093334,19.856001 91.3439998,20.0373325 91.392,20.208 C91.4400002,20.3786675 91.5093329,20.5466658 91.6,20.712 C91.6906671,20.8773342 91.7999994,21.0613323 91.928,21.264 L90.648,22.16 Z M89.384,20.4 C89.3413331,20.2719994 89.3146667,20.1093343 89.304,19.912 C89.2933333,19.7146657 89.288,19.4666682 89.288,19.168 L89.288,18.624 C89.2346664,18.6026666 89.1520006,18.5840001 89.04,18.568 C88.9279994,18.5519999 88.8133339,18.544 88.696,18.544 C88.1946642,18.544 87.8186679,18.6186659 87.568,18.768 C87.3173321,18.9173341 87.192,19.1839981 87.192,19.568 C87.192,19.9413352 87.287999,20.2026659 87.48,20.352 C87.672001,20.5013341 87.9493315,20.576 88.312,20.576 C88.4933342,20.576 88.6639992,20.5680001 88.824,20.552 C88.9840008,20.5359999 89.1706656,20.4853338 89.384,20.4 Z M95.832,18.192 C95.832,18.5440018 95.7066679,18.8453321 95.456,19.096 C95.2053321,19.3466679 94.9040018,19.472 94.552,19.472 C94.1999982,19.472 93.9013346,19.3466679 93.656,19.096 C93.4106654,18.8453321 93.288,18.5440018 93.288,18.192 C93.288,17.8399982 93.4106654,17.5413346 93.656,17.296 C93.9013346,17.0506654 94.1999982,16.928 94.552,16.928 C94.9040018,16.928 95.2053321,17.0506654 95.456,17.296 C95.7066679,17.5413346 95.832,17.8399982 95.832,18.192 Z M105.112,18.704 C105.112,19.7813387 104.789337,20.6319969 104.144,21.256 C103.498663,21.8800031 102.54134,22.192 101.272,22.192 C100.173328,22.192 99.0800054,21.9946686 97.992,21.6 L97.992,11.584 C98.1626675,11.5413331 98.3786654,11.4933336 98.64,11.44 C98.9013346,11.3866664 99.1786652,11.3386669 99.472,11.296 C99.7653348,11.2533331 100.055999,11.2186668 100.344,11.192 C100.632001,11.1653332 100.898665,11.152 101.144,11.152 C101.634669,11.152 102.159997,11.181333 102.72,11.24 C103.280003,11.298667 103.778664,11.3759995 104.216,11.472 L104.168,13.04 C103.794665,12.9866664 103.402669,12.9520001 102.992,12.936 C102.581331,12.9199999 102.205335,12.912 101.864,12.912 C101.501332,12.912 101.165335,12.9226666 100.856,12.944 C100.546665,12.9653334 100.296001,12.9866666 100.104,13.008 L100.104,15.712 C100.413335,15.637333 100.682666,15.5866668 100.912,15.56 C101.141334,15.5333332 101.399999,15.52 101.688,15.52 C102.264003,15.52 102.767998,15.5973326 103.2,15.752 C103.632002,15.9066674 103.989332,16.1253319 104.272,16.408 C104.554668,16.6906681 104.765333,17.0266647 104.904,17.416 C105.042667,17.8053353 105.112,18.2346643 105.112,18.704 Z M102.984,18.848 C102.984,18.2933306 102.850668,17.8880013 102.584,17.632 C102.317332,17.3759987 101.917336,17.2373334 101.384,17.216 C101.106665,17.2053333 100.853334,17.2133332 100.624,17.24 C100.394666,17.2666668 100.221334,17.2906666 100.104,17.312 L100.104,20.384 C100.370668,20.458667 100.597332,20.5013333 100.784,20.512 C100.970668,20.5226667 101.170666,20.528 101.384,20.528 C101.906669,20.528 102.303999,20.3760015 102.576,20.072 C102.848001,19.7679985 102.984,19.3600026 102.984,18.848 Z M111.976,22.16 C111.890666,22.1386666 111.768001,22.0640006 111.608,21.936 C111.447999,21.8079994 111.32,21.6693341 111.224,21.52 C111.053332,21.6373339 110.925334,21.7173331 110.84,21.76 C110.754666,21.8026669 110.648001,21.8506664 110.52,21.904 C110.306666,21.9893338 110.072001,22.0559998 109.816,22.104 C109.559999,22.1520002 109.304001,22.176 109.048,22.176 C108.706665,22.176 108.384002,22.1253338 108.08,22.024 C107.775998,21.9226662 107.512001,21.7733343 107.288,21.576 C107.063999,21.3786657 106.885334,21.1333348 106.752,20.84 C106.618666,20.5466652 106.552,20.2133352 106.552,19.84 C106.552,19.039996 106.810664,18.4080023 107.328,17.944 C107.845336,17.4799977 108.605328,17.248 109.608,17.248 C109.800001,17.248 109.978666,17.2613332 110.144,17.288 C110.309334,17.3146668 110.466666,17.3493331 110.616,17.392 L110.616,17.024 C110.616,16.7786654 110.602667,16.5786674 110.576,16.424 C110.549333,16.2693326 110.485334,16.1493338 110.384,16.064 C110.282666,15.9786662 110.133334,15.9200002 109.936,15.888 C109.738666,15.8559998 109.474668,15.84 109.144,15.84 C108.930666,15.84 108.685335,15.8533332 108.408,15.88 C108.130665,15.9066668 107.853335,15.9413331 107.576,15.984 L107.272,14.512 C108.082671,14.3093323 108.941329,14.208 109.848,14.208 C110.477336,14.208 110.970665,14.274666 111.328,14.408 C111.685335,14.541334 111.965332,14.7466653 112.168,15.024 C112.242667,15.1200005 112.306666,15.2239994 112.36,15.336 C112.413334,15.4480006 112.456,15.5759993 112.488,15.72 C112.52,15.8640007 112.544,16.0346657 112.56,16.232 C112.576,16.4293343 112.584,16.6666653 112.584,16.944 L112.584,18.992 C112.584,19.2480013 112.594667,19.471999 112.616,19.664 C112.637333,19.856001 112.672,20.0373325 112.72,20.208 C112.768,20.3786675 112.837333,20.5466658 112.928,20.712 C113.018667,20.8773342 113.127999,21.0613323 113.256,21.264 L111.976,22.16 Z M110.712,20.4 C110.669333,20.2719994 110.642667,20.1093343 110.632,19.912 C110.621333,19.7146657 110.616,19.4666682 110.616,19.168 L110.616,18.624 C110.562666,18.6026666 110.480001,18.5840001 110.368,18.568 C110.255999,18.5519999 110.141334,18.544 110.024,18.544 C109.522664,18.544 109.146668,18.6186659 108.896,18.768 C108.645332,18.9173341 108.52,19.1839981 108.52,19.568 C108.52,19.9413352 108.615999,20.2026659 108.808,20.352 C109.000001,20.5013341 109.277332,20.576 109.64,20.576 C109.821334,20.576 109.991999,20.5680001 110.152,20.552 C110.312001,20.5359999 110.498666,20.4853338 110.712,20.4 Z M118.952,22 L118.952,18.896 L116.68,18.896 L116.68,22 L114.696,22 L114.696,14.4 L116.68,14.4 L116.68,17.28 L118.952,17.28 L118.952,14.4 L120.952,14.4 L120.952,22 L118.952,22 Z M127.304,22 L126.856,20.936 C126.727999,20.6319985 126.621334,20.384001 126.536,20.192 C126.429333,19.9679989 126.344,19.7813341 126.28,19.632 C126.216,19.4719992 126.154667,19.3440005 126.096,19.248 C126.037333,19.1519995 125.973334,19.0773336 125.904,19.024 C125.834666,18.9706664 125.752,18.9360001 125.656,18.92 C125.56,18.9039999 125.442667,18.896 125.304,18.896 L125.032,18.896 L125.032,22 L123.032,22 L123.032,14.4 L125.032,14.4 L125.032,17.264 L125.368,17.264 C125.624001,17.264 125.797333,17.2186671 125.888,17.128 C125.978667,17.0373329 126.072,16.8906677 126.168,16.688 C126.264,16.495999 126.352,16.3146675 126.432,16.144 C126.512,15.9733325 126.6,15.792001 126.696,15.6 C126.781334,15.4186658 126.864,15.2560007 126.944,15.112 C127.024,14.9679993 127.117333,14.8426672 127.224,14.736 C127.362667,14.5973326 127.506666,14.490667 127.656,14.416 C127.805334,14.341333 128.018665,14.2933334 128.296,14.272 C128.456001,14.2613333 128.615999,14.2586666 128.776,14.264 C128.936001,14.2693334 129.090666,14.2826666 129.24,14.304 L129.128,15.68 C129.053333,15.6586666 128.989334,15.6533333 128.936,15.664 C128.882666,15.6746667 128.834667,15.6906666 128.792,15.712 C128.749333,15.7333334 128.706667,15.7599998 128.664,15.792 C128.568,15.8773338 128.48,15.986666 128.4,16.12 C128.32,16.253334 128.194668,16.5013315 128.024,16.864 C127.842666,17.2480019 127.669334,17.5146659 127.504,17.664 C127.338666,17.8133341 127.149334,17.9093331 126.936,17.952 L126.936,18 C127.245335,18.074667 127.482666,18.207999 127.648,18.4 C127.813334,18.592001 127.970666,18.8426651 128.12,19.152 C128.184,19.2800006 128.274666,19.4666654 128.392,19.712 C128.498667,19.9253344 128.637332,20.2159982 128.808,20.584 C128.978668,20.9520018 129.202665,21.4239971 129.48,22 L127.304,22 Z" id="В-Альфа-Банк"></path>
            </g>
        </g>
    </g>
</svg>